<?xml version="1.0" encoding="utf-8"?>
<!-- Generator: Adobe Illustrator 25.4.1, SVG Export Plug-In . SVG Version: 6.00 Build 0)  -->
<svg version="1.1" xmlns="http://www.w3.org/2000/svg" xmlns:xlink="http://www.w3.org/1999/xlink" x="0px" y="0px"
	 viewBox="0 0 1530.178 850.315" enable-background="new 0 0 1530.178 850.315" xml:space="preserve">
<g id="background">
</g>
<g id="elements">
	<g>
		<path fill="#251D20" d="M495.997,10.469c0,0-214.245,6.557-277.648,91.818l0,0L56.569,637.905c0,0,2.185,39.351,115.872,39.351
			c0,0,32.792-126.801,163.963-131.17c0,0,124.616,0,139.918,139.92c0,0,6.211,36.435,31.21,3.526h626.835
			c0,0,15.304,18.333,30.607,0.843c0,0,28.162-138.644,166.432-142.064c1.558-0.039,3.118,0.02,4.67,0.168
			c17.587,1.685,113.202,16.507,115.289,139.711h52.469V95.73c0,0,0-85.261-69.955-85.261H495.997z"/>
		<path fill="none" d="M495.997,108.845V34.676c0,0-0.117-24.207,25.034-24.207"/>
		<path fill="#FFFFFF" d="M467.574,292.924c0,11.832-9.587,21.427-21.424,21.427H238.43c-11.831,0-34.005-20.346-23.253-47.707
			l29.409-105.766c3.501-11.722,9.593-21.422,21.424-21.422h180.141c11.836,0,21.424,9.59,21.424,21.422V292.924z"/>
		<line fill="none" x1="495.997" y1="515.293" x2="339.948" y2="515.293"/>
		<path fill="#251D20" d="M158.255,301.245l-83.57,326.632l7.067,35.065l-40.677-18.489c-2.145-0.975-4.362-1.775-6.587-2.553
			c-15.627-5.461-25.947-22.901-23.67-39.459l37.28-271.023l0,0c0.617-4.49,3.994-8.106,8.432-9.029L158.255,301.245z"/>
		<path fill="none" d="M1467.777,688.19v30.187h27.075c0,0,15.474-1.179,17.405-15.096c0,0,1.53-15.091-8.423-15.091H1467.777z"/>
		<rect x="553.921" y="83.027" fill="#FFFFFF" width="924.489" height="214.681"/>
		<rect x="553.921" y="281.311" fill="#251D20" width="924.489" height="17.397"/>
		<line fill="none" x1="104.665" y1="321.451" x2="104.665" y2="343.607"/>
		<g>
			<path fill="#251D20" d="M453.728,704.912c0-70.706-57.318-128.025-128.025-128.025c-70.708,0-128.025,57.319-128.025,128.025
				c0,70.702,57.318,128.023,128.025,128.023C396.41,832.936,453.728,775.614,453.728,704.912z"/>
			<path fill="#251D20" d="M384.282,704.906c0-32.351-26.228-58.577-58.578-58.577c-32.35,0-58.579,26.227-58.579,58.577
				c0,32.355,26.229,58.579,58.579,58.579C358.053,763.485,384.282,737.262,384.282,704.906z"/>
		</g>
		<g>
			<path fill="#251D20" d="M1439.162,704.912c0-70.706-57.319-128.025-128.023-128.025c-70.705,0-128.028,57.319-128.028,128.025
				c0,70.702,57.323,128.023,128.028,128.023C1381.843,832.936,1439.162,775.614,1439.162,704.912z"/>
			<path fill="#FFFFFF" d="M1343.212,704.913c0-17.716-14.358-32.074-32.073-32.074c-17.711,0-32.077,14.358-32.077,32.074
				c0,17.709,14.365,32.068,32.077,32.068C1328.853,736.981,1343.212,722.622,1343.212,704.913z"/>
		</g>
		<g>
			<path fill="#FFFFFF" d="M530.057,80.333h-13.056l40.003,218.661c0.548,3.021,3.262,5.143,6.32,5.143
				c0.375,0,0.75-0.03,1.131-0.098c3.493-0.599,5.825-3.834,5.205-7.222L530.057,80.333z"/>
		</g>
		<g>
			<path fill="#FFFFFF" d="M1502.271,80.333l-39.6,216.485c-0.617,3.388,1.713,6.623,5.205,7.222
				c0.381,0.067,0.757,0.098,1.131,0.098c3.058,0,5.77-2.122,6.322-5.143l40-218.661H1502.271z"/>
		</g>
		<g>
			<path fill="#251D20" d="M509.218,83.027c1.881,13.337,13.335,23.598,27.191,23.598c13.856,0,25.31-10.261,27.191-23.598H509.218z
				"/>
			<path fill="#251D20" d="M562.266,83.027c1.882,13.337,13.336,23.598,27.191,23.598c13.855,0,25.309-10.261,27.191-23.598H562.266
				z"/>
			<path fill="#251D20" d="M615.314,83.027c1.882,13.337,13.336,23.598,27.192,23.598c13.855,0,25.309-10.261,27.191-23.598H615.314
				z"/>
			<path fill="#251D20" d="M668.362,83.027c1.882,13.337,13.336,23.598,27.191,23.598c13.856,0,25.309-10.261,27.192-23.598H668.362
				z"/>
			<path fill="#251D20" d="M721.41,83.027c1.882,13.337,13.336,23.598,27.192,23.598c13.854,0,25.31-10.261,27.19-23.598H721.41z"/>
			<path fill="#251D20" d="M774.459,83.027c1.882,13.337,13.336,23.598,27.19,23.598c13.855,0,25.31-10.261,27.191-23.598H774.459z"
				/>
			<path fill="#251D20" d="M827.507,83.027c1.882,13.337,13.335,23.598,27.191,23.598c13.855,0,25.309-10.261,27.191-23.598H827.507
				z"/>
			<path fill="#251D20" d="M880.554,83.027c1.883,13.337,13.335,23.598,27.191,23.598c13.857,0,25.31-10.261,27.191-23.598H880.554z
				"/>
			<path fill="#251D20" d="M933.603,83.027c1.881,13.337,13.336,23.598,27.191,23.598c13.854,0,25.309-10.261,27.19-23.598H933.603z
				"/>
			<path fill="#251D20" d="M986.651,83.027c1.882,13.337,13.335,23.598,27.191,23.598c13.856,0,25.309-10.261,27.191-23.598H986.651
				z"/>
			<path fill="#251D20" d="M1039.699,83.027c1.883,13.337,13.336,23.598,27.19,23.598c13.856,0,25.31-10.261,27.192-23.598H1039.699
				z"/>
			<path fill="#251D20" d="M1092.747,83.027c1.882,13.337,13.336,23.598,27.191,23.598c13.856,0,25.31-10.261,27.19-23.598H1092.747
				z"/>
			<path fill="#251D20" d="M1145.795,83.027c1.881,13.337,13.336,23.598,27.191,23.598c13.855,0,25.31-10.261,27.191-23.598
				H1145.795z"/>
			<path fill="#251D20" d="M1198.845,83.027c1.881,13.337,13.334,23.598,27.188,23.598c13.858,0,25.311-10.261,27.193-23.598
				H1198.845z"/>
			<path fill="#251D20" d="M1251.892,83.027c1.882,13.337,13.335,23.598,27.19,23.598c13.855,0,25.31-10.261,27.191-23.598H1251.892
				z"/>
			<path fill="#251D20" d="M1304.939,83.027c1.882,13.337,13.335,23.598,27.192,23.598c13.854,0,25.309-10.261,27.189-23.598
				H1304.939z"/>
			<path fill="#251D20" d="M1357.987,83.027c1.882,13.337,13.337,23.598,27.191,23.598c13.856,0,25.31-10.261,27.192-23.598
				H1357.987z"/>
			<path fill="#251D20" d="M1411.037,83.027c1.881,13.337,13.335,23.598,27.189,23.598c13.856,0,25.311-10.261,27.191-23.598
				H1411.037z"/>
			<path fill="#251D20" d="M1464.084,83.027c1.882,13.337,13.335,23.598,27.191,23.598c13.856,0,25.309-10.261,27.191-23.598
				H1464.084z"/>
		</g>
		<polygon fill="#FFFFFF" points="553.922,54.99 1478.411,54.99 1521.448,83.027 510.884,83.027 		"/>
	</g>
	<path fill="#FFFFFF" d="M357.778,704.91c0-17.716-14.358-32.074-32.073-32.074c-17.711,0-32.077,14.358-32.077,32.074
		c0,17.709,14.366,32.068,32.077,32.068C343.419,736.979,357.778,722.619,357.778,704.91z"/>
</g>
</svg>
