<?xml version="1.0" encoding="utf-8"?>
<!-- Generator: Adobe Illustrator 25.4.1, SVG Export Plug-In . SVG Version: 6.00 Build 0)  -->
<svg version="1.1" xmlns="http://www.w3.org/2000/svg" xmlns:xlink="http://www.w3.org/1999/xlink" x="0px" y="0px"
	 viewBox="0 0 656.557 592.646" enable-background="new 0 0 656.557 592.646" xml:space="preserve">
<g id="Ebene_4" display="none">
	
		<image display="inline" overflow="visible" width="144" height="126" xlink:href="../../../Bildschirmfoto 2021-11-09 um 11.30.10.png"  transform="matrix(9.7548 0 0 9.7548 -335.2776 -290.6835)">
	</image>
</g>
<g id="Ebene_2">
	<path fill="#251D20" d="M75.192,294.046c-0.42-12.613-0.841-24.385,8.409-34.475c10.511-11.772,28.169-14.295,42.884-14.295
		c63.064,0,347.694,0,347.694,0s59.28-4.204,60.121,45.406c0.841,49.61-28.589,167.751-110.993,237.121c0,0-241.325,0-241.746,0
		c-4.204,0-13.874-11.772-16.397-14.295c-13.874-13.033-26.067-27.748-36.998-43.304c-35.736-50.872-51.292-108.47-52.553-170.273
		C75.192,297.83,75.192,296.148,75.192,294.046z"/>
	<path fill="none" stroke="#251D20" stroke-width="20" stroke-linecap="round" stroke-miterlimit="10" d="M226.546,18.666
		c0,0,44.565,40.781-0.841,104.686c0,0-21.862,24.805,9.249,74.836"/>
	<path fill="none" stroke="#251D20" stroke-width="20" stroke-linecap="round" stroke-miterlimit="10" d="M315.677,18.666
		c0,0,44.565,40.781-0.841,104.686c0,0-21.862,24.805,9.249,74.836"/>
	<path fill="none" stroke="#251D20" stroke-width="20" stroke-linecap="round" stroke-miterlimit="10" d="M399.762,18.666
		c0,0,44.565,40.781-0.841,104.686c0,0-21.862,24.805,9.249,74.836"/>
	<g id="Ebene_3">
		<path fill="none" stroke="#251D20" stroke-width="19" stroke-miterlimit="10" d="M523.197,312.545
			c0,0,122.344-33.214,118.981,38.259c0,0,16.397,111.834-185.408,128.23"/>
	</g>
	<g id="Ebene_4_00000147195311365380696070000000694432356957671319_">
		<path fill="#251D20" d="M10.446,524.065h583.133c7.147,0,10.511,8.829,5.045,13.454L552.798,578.3
			c-5.886,5.045-13.033,7.988-20.601,7.988H74.351c-6.306,0-12.613-2.523-17.237-6.727L6.663,534.575
			C2.038,530.792,4.981,524.065,10.446,524.065z"/>
	</g>
</g>
</svg>
