<?xml version="1.0" encoding="utf-8"?>
<!-- Generator: Adobe Illustrator 25.4.1, SVG Export Plug-In . SVG Version: 6.00 Build 0)  -->
<svg version="1.1" xmlns="http://www.w3.org/2000/svg" xmlns:xlink="http://www.w3.org/1999/xlink" x="0px" y="0px"
	 viewBox="0 0 1530.178 850.315" enable-background="new 0 0 1530.178 850.315" xml:space="preserve">
<g id="background" display="none">
</g>
<g id="elements" display="none">
	
		<image display="inline" overflow="visible" width="110" height="89" xlink:href="../../../envelope.png"  transform="matrix(16.7634 0 0 16.7634 -95.6455 -198.783)">
	</image>
</g>
<g id="Ebene_3">
	<path fill="#251D20" stroke="#251D20" stroke-width="22" stroke-miterlimit="10" d="M254.439,59.374h980.362
		c8.416,0,12.73,10.086,6.917,16.172L764.352,575.338c-3.7,3.874-9.859,3.954-13.659,0.179L247.697,75.725
		C241.641,69.708,245.902,59.374,254.439,59.374z"/>
	<path fill="#251D20" stroke="#251D20" stroke-width="22" stroke-miterlimit="10" d="M214.478,210.855v432.892
		c0,8.444,10.125,12.766,16.223,6.926l214.932-205.851c3.809-3.648,3.957-9.688,0.331-13.519L231.032,204.263
		C225.071,197.966,214.478,202.185,214.478,210.855z"/>
	<path fill="#251D20" stroke="#251D20" stroke-width="22" stroke-miterlimit="10" d="M1294.043,201.952v450.101
		c0,5.322-6.381,8.046-10.224,4.365l-223.477-214.034c-2.401-2.299-2.494-6.106-0.209-8.52l223.477-236.067
		C1287.367,193.828,1294.043,196.487,1294.043,201.952z"/>
	<path fill="#251D20" stroke="#251D20" stroke-width="22" stroke-miterlimit="10" d="M252.198,761.48l257.175-268.999
		c5.671-5.932,15.04-6.25,21.1-0.717l209.861,191.612c5.929,5.414,15.057,5.242,20.779-0.39l193.571-190.546
		c5.958-5.864,15.546-5.774,21.392,0.202l265.927,271.836c9.37,9.578,2.554,25.708-10.845,25.665l-968.09-3.123
		C249.797,786.978,243.028,771.072,252.198,761.48z"/>
</g>
</svg>
