<?xml version="1.0" encoding="utf-8"?>
<!-- Generator: Adobe Illustrator 25.4.1, SVG Export Plug-In . SVG Version: 6.00 Build 0)  -->
<svg version="1.1" xmlns="http://www.w3.org/2000/svg" xmlns:xlink="http://www.w3.org/1999/xlink" x="0px" y="0px"
	 viewBox="0 0 690.303 710.757" enable-background="new 0 0 690.303 710.757" xml:space="preserve">
<g id="Ebene_4" display="none">
	
		<image display="inline" overflow="visible" width="144" height="126" xlink:href="../../../Bildschirmfoto 2021-11-09 um 11.30.10.png"  transform="matrix(9.7548 0 0 9.7548 -317.2797 -242.3141)">
	</image>
</g>
<g id="Ebene_2">
	<path fill="#251D20" stroke="#251D20" stroke-width="22" stroke-miterlimit="10" d="M28.384,51.886l16.609-16.948
		c10.569-10.785,24.983-16.94,40.083-17.115l99.049-1.152c24.29-0.282,46.207,14.532,55,37.176l40.57,104.482
		c8.599,22.145,4.143,47.236-11.555,65.065l-22.527,25.586c-16.15,18.343-15.332,46.061,1.871,63.42l176.641,177.472
		c12.205,12.262,32.909,8.498,40.017-7.276l15.159-33.644c4.126-9.156,11.277-16.688,20.359-20.975
		c12.378-5.843,26.552-7.426,40.221-4.139l72.413,17.416c27.004,6.495,46.718,29.691,48.774,57.388l10.418,140.331
		c1.396,18.802-6.961,37.004-22.131,48.201l0,0c-10.175,7.51-22.926,10.627-35.423,8.69
		C509.061,679.609,26.823,578.11,15.269,84.929C14.98,72.602,19.753,60.692,28.384,51.886z"/>
</g>
</svg>
