<?xml version="1.0" encoding="utf-8"?>
<!-- Generator: Adobe Illustrator 25.4.1, SVG Export Plug-In . SVG Version: 6.00 Build 0)  -->
<svg version="1.1" xmlns="http://www.w3.org/2000/svg" xmlns:xlink="http://www.w3.org/1999/xlink" x="0px" y="0px"
	 viewBox="0 0 1763.9 147" style="enable-background:new 0 0 1763.9 147;" xml:space="preserve">
<style type="text/css">
	.st0{display:none;}
	.st1{display:inline;}
	.st2{fill:#FFFFFF;}
	.st3{fill:none;stroke:#000000;stroke-width:6;stroke-miterlimit:10;}
	.st4{fill:none;stroke:#000000;stroke-width:6;stroke-linecap:round;stroke-miterlimit:10;}
	.st5{fill:none;stroke:#000000;stroke-width:8;stroke-linecap:round;stroke-miterlimit:10;}
</style>
<g id="Layer_1" class="st0">
	<g class="st1">
		<g>
			<path class="st2" d="M823.9,146.4c-276,0-551.9,0-827.9,0c0-15,0-30.1,0-45.1c1.1,1.1,2.2,2.2,3.3,3.3c0.5,0.4,1.2,0.6,1.9,0.6
				c248.5,0,497,0,745.5,0c0.6,0,1.2-0.2,1.5-0.2c0.8-0.9,1.5-1.6,2-2.3c0.3-0.4,0.7-1,0.8-1.4c0.1-2,0-4-0.1-6
				c0-0.4-0.2-0.8-0.5-1.1c-1.7-1.7-3.4-3.2-6-2.7c-0.9,0.2-1.9,0-2.9,0c-245.1,0-490.1,0-735.2,0c-1.4,0-2.9,0-4.3,0
				c-0.8,0-1.6,0.2-2.4,0.3c-0.3,0.1-0.7,0.4-0.9,0.6c-0.9,1-1.8,2-2.8,3.1c0-30.9,0-61.8,0-92.6c580.4,0,1160.8,0,1741.2,0
				c0,30.9,0,61.8,0,92.6c-3.4-4.3-2-4-7.6-4.1c-0.3,0-0.6,0-1,0c-234.8,0-469.7,0-704.5,0c-1,0-2.1,0-3.1,0c-0.9,0.1-2,0-2.5,0.5
				c-1,0.9-2.1,2.1-2.4,3.3c-0.4,1.9-0.2,4-0.1,5.9c0,0.4,0.4,0.9,0.7,1.2c0.6,0.8,1.3,1.5,1.9,2.4c2.8,0.5,713.3,0.5,715.6,0
				c1-1.3,1.9-2.4,2.8-3.6c0,15,0,30.1,0,45.1c-265.9,0-531.8,0-797.6,0c1.1-1.4,2.5-2.2,4.3-2.1c0.4,0,1.1-0.1,1.1-0.3
				c0.2-1.6,1.8-1.3,2.7-1.9c0.9-0.7,1.5-1.9,2.9-1.9c0.1,0,0.3-0.5,0.4-0.7c0.2-0.3,0.3-0.9,0.6-1c1.7-0.2,1.6-2.5,3.2-2.6
				c0.2-1.7,2.6-1.7,2.7-3.4c1.6-0.2,1.4-1.5,1.5-2.5c0.2-1,0-2,0-3.1c-0.7-0.1-1.3-0.1-1.6-0.4c-1.5-1.5-3.4-1.2-5.2-1.2
				c-9.8,0-19.5,0-29.3,0c-1.5,0-3,0.5-4.4,0.7c-0.7,0.1-1.5,0.3-2.4,0.4c0-1.3,0-2.3,0-3.3c0.6-0.1,1.1-0.2,1.5-0.3
				c0.5-0.2,1.2-0.3,1.5-0.7c1.4-2.4,3.3-3.5,6.1-3.4c0.7,0,1.5-0.7,2.3-1c0.5-0.2,1-0.5,1.5-0.5c1-0.1,2.1-0.1,3.1-0.2
				c0.5-0.1,1.3-0.2,1.5-0.5c0.7-1.3,1.9-1.3,3.1-1.4c0.9-0.1,2.3-0.1,2.7-0.7c0.7-1,1.6-1.1,2.4-1.3c1.3-0.3,2.5-0.5,3.8-1.5
				c1.1-1,3.3-0.7,4.2-2.4c1.5-0.1,3-0.2,3.6-2c1.1,0,1.7-0.5,2-1.6c0-0.1,0.4-0.3,0.6-0.3c0.8,0,1.1-1,1.5-1.2c2-1,3.3-2.6,4.5-4.5
				c0.3-0.5,1-0.8,1.1-1.6c0-0.2,0.3-0.7,0.5-0.7c1.2-0.1,1.3-1,1.3-1.9c0.1-1.6,0-3.2,1.5-4.4c0.2-0.2,0.3-0.7,0.3-1.1
				c0-1.4,0.1-2.9,0-4.3c-0.1-0.7-0.2-1.6-0.7-1.9c-0.8-0.6-0.8-1.3-0.9-2.1c-0.2-1.6,0.2-3.4-1.9-4.2c-0.2-0.1-0.1-0.6-0.2-0.9
				c-0.1-0.3-0.4-0.7-0.5-0.7c-1.5,0.1-1.4-1.2-1.6-1.6c-1.5-0.6-2.8-0.7-3.4-1.5c-0.7-0.9-1.4-0.9-2.2-0.9c-3.4,0-6.7,0-10.1,0
				c-1.6,0-3.2-0.1-4.3,1.3c-0.1,0.1-0.4,0-0.8,0c-1-2.9,0-6-0.8-9.1c-2,0.1-1.4-2.6-3.2-2.8c-0.3-1.8-3-1.1-2.8-3.3
				c-34.5,0-68.8,0-102.9,0c-0.4,0.8-0.6,1.7-0.9,1.7c-1.2,0.1-1.6,1.2-2.4,1.6c-1.3,0.6-0.8,2-1.5,2.4c-1.9,0.9-1.5,2.5-1.5,3.9
				c0,4.2,0,8.5,0,12.7c0,1.5-0.1,3,1.2,4.2c0.5,0.5,0.5,1.5,0.6,2.3c0.1,1.3,0.1,2.6,0.2,3.8c0.1,1.2-0.2,2.5,1.2,3.4
				c0.5,0.3,0.5,1.3,0.6,2c0.2,0.9,0.2,1.9,0.3,2.9c0.6,0.3,1.2,0.5,1.6,0.7c0.5,1.5-0.4,3.3,1.7,4c0.2,0,0.2,0.6,0.3,0.9
				c0.1,0.8,0.3,1.6,0.4,2.4c0.9,0.2,1.3,0.6,1.8,1.6c0.7,1.4,2.1,2.4,2.2,4.2c0,0.1,0.2,0.2,0.4,0.3c1.6,0.2,1.2,2.6,2.9,2.6
				c0,1.9,1.7,2.7,2.7,4c0.7,0.9,1.4,1.8,2.1,2.7c0.2,0.3,0.7,0.4,1,0.5c0.7,0.2,1.4,0.4,2.1,0.6c0,1,0,2,0,3.4
				c-1.4-0.3-2.5-0.5-3.7-0.8c-0.9-0.2-1.8-0.5-2.8-0.5c-10.5,0-21.1,0-31.7,0c-0.7,0-1.4,0.2-2.1,0.4c-0.8,0.3-1.6,0.8-2.5,1.3
				c0,1.6,0,3.3,0,5.1c1,0.2,2.1,0.3,2.1,1.6c0,0.2,0.3,0.5,0.5,0.5c1.2,0.1,1,1.3,1.6,1.8c0.6,0.5,1.2,0.9,1.8,1.6
				c0.7,0.9,1.9,1.4,2.4,2.6c0.1,0.1,0.4,0.2,0.7,0.2c1.8,0.1,2.4,2.5,4.3,2.4c0.5,2,2.2,1.5,3.5,1.6
				C822.5,144.6,823.5,145,823.9,146.4z M903.9,24.4c-0.9,0.4-2,0.6-1.9,2c0,0.1-0.2,0.4-0.4,0.5c-1.2,0.5-1.3,1.7-1.5,2.8
				c-0.1,0.8-0.1,1.9-0.6,2.2c-1.4,1.1-1.2,2.5-1.2,3.9c0,1.7,0,3.4,0.1,5c0,0.6,0.3,1.2,0.5,1.8c0.4,1,0.8,2,1.2,3
				c0.3,0.7,0.3,2,0.8,2.1c1.2,0.5,1.1,1.6,1.5,2.5c1.8,0,3.5,0,5.4,0c0-1.8,0-3.4,0-4.9c0-0.4-0.2-0.9-0.5-1
				c-1.4-0.5-1.3-1.7-1.4-2.8c-0.1-2-0.2-4-0.1-6c0.1-1.8-0.4-3.9,1.8-5.1c0.2-0.1,0.1-0.6,0.2-0.9c0.1-0.4,0.2-0.9,0.4-1
				c1.4-0.5,1.5-1.7,1.7-2.9c0.1-0.3,0.3-0.9,0.5-0.9c1-0.3,1.1-1.1,1.1-1.9c0-3.6,0.1-7.2,0.1-10.8c0-0.4-0.1-1.1-0.4-1.3
				c-1-0.7-1.3-1.8-1.5-2.9c0-0.3-0.2-0.8-0.3-0.8c-1.2-0.1-1.3-1.2-1.8-2c-0.5-0.7-1.2-1.3-1.9-1.7c-0.4-0.2-1.7,0.1-1.7,0.2
				c-0.1,1.3-1.4,1.1-2.1,1.7c0,0.9-0.1,1.8,0,2.6c0,0.4,0.2,1,0.5,1.2c1.4,0.7,1.3,2,1.5,3.3c0.1,0.9-0.1,1.8,0.8,2.6
				c1.2,1.1,1.1,2.6,0.2,3.9c-0.5,0.7-0.8,1.5-0.9,2.4C904,22.4,904,23.4,903.9,24.4z M866.9,50.5c0.2-1.4,0.5-2.4,0.3-3.2
				c-0.2-1.5-0.5-3.2-1.3-4.4c-0.5-0.8-0.9-1.4-0.9-2.2c0-1.3-0.2-2.6-0.1-3.8c0.2-1.7-0.7-3.7,1.5-4.8c0.2-0.1,0.2-0.6,0.2-0.9
				c0.2-0.7,0.3-1.4,0.5-2.2c0.5-0.2,1-0.4,1.5-0.6c0.5-1.3-0.2-3.2,1.9-3.7c0.2,0,0.2-0.6,0.3-0.9c0.2-4.8,0.3-9.6-0.2-14.4
				c-0.6-0.2-1-0.4-1.7-0.7c0.7-2.6-2-3.4-2.9-5.3c-0.9,0-1.8,0-2.4,0c-1,0.9-1.7,1.6-2.5,2.4c0,0.9,0,1.9,0,2.8
				c0.6,0.3,1.4,0.6,1.4,0.9c0.2,1.8,1.2,3,1.9,4.5c0.7,1.6,0.7,3.9,0.2,5.6c-0.5,1.7-1.9,3.1-2.1,5c0,0-0.1,0.1-0.2,0.1
				c-1.2,0.1-1.3,1.1-1.3,1.9c0,1.3-0.7,2-1.8,2.2c-0.1,0.7-0.1,1.1-0.2,1.6c-0.2,1.6-0.2,3.1-1.3,4.7c-1,1.3-0.9,3.4,0.2,4.7
				c0.7,0.9,0.9,1.6,1,2.6c0.1,1.1,0.2,2.2,0.3,3.4c0.5,0.3,1,0.5,1.5,0.8c0.2,1.1,0.5,2.1,0.7,3.5
				C863.2,50.3,864.9,50.4,866.9,50.5z M880.4,30.3c-0.5,0.3-1.1,0.6-1.7,0.9c0,4.4,0,8.7,0,13.1c1.3,0.2,1.8,1,1.9,2.2
				c0,0.7,0.3,1.9,0.5,1.9c1.3,0.1,1,1.6,2,2.2c1.5-0.1,3.2-0.2,5.2-0.3c-0.1-1.5-0.2-2.7-0.3-4c-2.2-1-1.4-3.9-3.2-5.2
				c-1.2-3.9,0-7.3,2-10.5c1.3-0.2,1.1-1.4,1.5-2.2c0.2-0.4,0.1-1.2,0.4-1.3c1.8-0.8,1.3-2.5,1.6-3.9c0.2-0.8,0.3-1.8,0.8-2.4
				c1.3-1.8,1.7-5.5,0.2-7.1c-0.7-0.8-1.1-1.6-1-2.5c0.3-2.4-1.7-3.7-2.2-5.7c0-0.1-0.4-0.2-0.6-0.3c-0.6-0.5-1.2-1-2-1.7
				c-1.3-0.2-2.3,0.2-3.3,1.7c-1.3,2-1.5,1.8-0.2,3.9c0.2,0.3,0.4,0.6,0.3,0.9c-0.1,1.3,1.1,1.1,2,1.6c0,2.6,0,5.2,0,7.9
				c0,1.6,0.4,3.4-1.4,4.4c-0.3,0.2-0.5,0.9-0.5,1.3c0,1.3-0.9,1.7-1.8,2C880.6,28.2,880.5,29.2,880.4,30.3z"/>
			<path d="M-4,95.5c0.9-1,1.8-2.1,2.8-3.1c0.2-0.3,0.6-0.5,0.9-0.6c0.8-0.2,1.6-0.3,2.4-0.3c1.4-0.1,2.9,0,4.3,0
				c245.1,0,490.1,0,735.2,0c1,0,2,0.1,2.9,0c2.7-0.5,4.4,1,6,2.7c0.3,0.3,0.4,0.7,0.5,1.1c0.1,2,0.1,4,0.1,6c0,0.5-0.4,1-0.8,1.4
				c-0.6,0.7-1.2,1.4-2,2.3c-0.3,0-0.9,0.2-1.5,0.2c-248.5,0-497,0-745.5,0c-0.7,0-1.4-0.2-1.9-0.6c-1.1-1.1-2.2-2.2-3.3-3.3
				C-4,99.3-4,97.4-4,95.5z"/>
			<path d="M1737.2,101.2c-0.9,1.1-1.8,2.3-2.8,3.6c-2.3,0.5-712.8,0.5-715.6,0c-0.7-0.8-1.3-1.6-1.9-2.4c-0.3-0.4-0.7-0.8-0.7-1.2
				c-0.1-2-0.3-4,0.1-5.9c0.3-1.2,1.4-2.4,2.4-3.3c0.6-0.5,1.7-0.5,2.5-0.5c1-0.1,2.1,0,3.1,0c234.8,0,469.7,0,704.5,0
				c0.3,0,0.6,0,1,0c5.6,0.1,4.1-0.2,7.6,4.1C1737.2,97.4,1737.2,99.3,1737.2,101.2z"/>
			<path d="M823.9,146.4c-0.4-1.3-1.4-1.8-2.7-1.9c-1.3-0.2-3,0.4-3.5-1.6c-1.9,0-2.5-2.3-4.3-2.4c-0.2,0-0.6,0-0.7-0.2
				c-0.5-1.2-1.7-1.7-2.4-2.6c-0.6-0.7-1.2-1.1-1.8-1.6c-0.6-0.5-0.5-1.7-1.6-1.8c-0.2,0-0.5-0.3-0.5-0.5c0-1.3-1-1.4-2.1-1.6
				c0-1.8,0-3.5,0-5.1c0.9-0.5,1.7-1,2.5-1.3c0.7-0.2,1.4-0.4,2.1-0.4c10.6,0,21.1,0,31.7,0c0.9,0,1.9,0.3,2.8,0.5
				c1.1,0.2,2.3,0.5,3.7,0.8c0-1.4,0-2.3,0-3.4c-0.8-0.2-1.5-0.4-2.1-0.6c-0.4-0.1-0.8-0.2-1-0.5c-0.8-0.9-1.4-1.8-2.1-2.7
				c-1-1.2-2.7-2-2.7-4c-1.7,0-1.3-2.4-2.9-2.6c-0.1,0-0.4-0.2-0.4-0.3c-0.1-1.8-1.5-2.8-2.2-4.2c-0.4-0.9-0.9-1.3-1.8-1.6
				c-0.1-0.8-0.2-1.6-0.4-2.4c-0.1-0.3-0.1-0.8-0.3-0.9c-2-0.6-1.2-2.5-1.7-4c-0.4-0.2-1-0.5-1.6-0.7c-0.1-1-0.1-1.9-0.3-2.9
				c-0.1-0.7-0.2-1.7-0.6-2c-1.3-0.9-1.1-2.2-1.2-3.4c-0.1-1.3,0-2.6-0.2-3.8c-0.1-0.8-0.1-1.8-0.6-2.3c-1.3-1.2-1.2-2.7-1.2-4.2
				c0-4.2-0.1-8.5,0-12.7c0-1.4-0.3-3,1.5-3.9c0.7-0.3,0.3-1.8,1.5-2.4c0.7-0.4,1.2-1.5,2.4-1.6c0.3,0,0.5-0.9,0.9-1.7
				c34.1-0.1,68.4,0,102.9,0c-0.1,2.2,2.5,1.5,2.8,3.3c1.8,0.2,1.2,2.9,3.2,2.8c0.8,3.1-0.2,6.2,0.8,9.1c0.4,0,0.7,0.1,0.8,0
				c1.2-1.4,2.8-1.3,4.3-1.3c3.4,0,6.7,0,10.1,0c0.8,0,1.6,0,2.2,0.9c0.6,0.7,1.9,0.9,3.4,1.5c0.2,0.4,0.1,1.7,1.6,1.6
				c0.2,0,0.4,0.4,0.5,0.7c0.1,0.3,0.1,0.8,0.2,0.9c2.1,0.8,1.6,2.6,1.9,4.2c0.1,0.8,0.1,1.5,0.9,2.1c0.5,0.3,0.6,1.3,0.7,1.9
				c0.1,1.4,0.1,2.9,0,4.3c0,0.4,0,1-0.3,1.1c-1.5,1.1-1.4,2.8-1.5,4.4c-0.1,0.9-0.1,1.8-1.3,1.9c-0.2,0-0.5,0.4-0.5,0.7
				c0,0.8-0.7,1.1-1.1,1.6c-1.2,1.8-2.5,3.4-4.5,4.5c-0.4,0.2-0.7,1.1-1.5,1.2c-0.2,0-0.6,0.1-0.6,0.3c-0.3,1-0.8,1.6-2,1.6
				c-0.6,1.7-2.1,1.8-3.6,2c-0.9,1.7-3.1,1.4-4.2,2.4c-1.2,1-2.4,1.2-3.8,1.5c-0.9,0.2-1.8,0.3-2.4,1.3c-0.4,0.6-1.7,0.5-2.7,0.7
				c-1.2,0.2-2.4,0.2-3.1,1.4c-0.2,0.3-1,0.4-1.5,0.5c-1,0.1-2.1,0.1-3.1,0.2c-0.5,0.1-1,0.3-1.5,0.5c-0.8,0.3-1.5,1-2.3,1
				c-2.8-0.1-4.7,1-6.1,3.4c-0.2,0.4-0.9,0.5-1.5,0.7c-0.4,0.2-0.9,0.2-1.5,0.3c0,1,0,2,0,3.3c0.9-0.2,1.6-0.3,2.4-0.4
				c1.5-0.3,3-0.7,4.4-0.7c9.8-0.1,19.5,0,29.3,0c1.8,0,3.7-0.3,5.2,1.2c0.3,0.3,0.9,0.2,1.6,0.4c0,1.1,0.1,2.1,0,3.1
				c-0.2,1,0.1,2.4-1.5,2.5c-0.2,1.7-2.5,1.7-2.7,3.4c-1.6,0.2-1.5,2.5-3.2,2.6c-0.2,0-0.4,0.6-0.6,1c-0.2,0.3-0.3,0.8-0.4,0.7
				c-1.4,0-2,1.2-2.9,1.9c-0.9,0.6-2.4,0.3-2.7,1.9c0,0.2-0.7,0.3-1.1,0.3c-1.8-0.1-3.2,0.7-4.3,2.1
				C901,146.4,862.5,146.4,823.9,146.4z M931.7,66.8c-2.7-3.2-5.8-2.5-8.8-2.5c-28.8,0-57.5,0-86.3,0c-0.6,0-1.1,0-1.7,0
				c-0.4,0.1-0.9,0.3-1.3,0.5c-0.7,0.5-1.4,1-2.2,1.6c-0.7,7.2,0.1,14.5,0.2,21.9c0,0.4,0.1,1,0.4,1c1.7,0.7,1.3,2.2,1.4,3.5
				c0.1,1.4,0.3,2.6,1.6,2.9c0.4,1.8,0.3,3.7,1.2,4.5c1.1,1,0.5,3.4,2.7,3.3c0.2,1.2,0.4,2.2,0.5,3c0.7,0.5,1.5,0.8,1.7,1.3
				c0.3,0.8,0.5,1.2,1.3,1.4c0.2,0.1,0.5,0.6,0.6,0.9c0.6,2.1,2,3.5,3.8,4.7c0.2,0.1,0.3,0.3,0.5,0.5c1.1,1.7,2.8,3.1,4.5,3.8
				c0.4,0.2,0.7,0.6,1,0.8s0.6,0.6,1,0.9c0.4,0.3,0.8,0.6,1.1,1c0.4,0.3,0.8,0.6,1.1,0.9c0.3,0.2,0.9,0.3,0.9,0.6
				c0.2,1.2,1.2,1.1,2,1.3c1,0.3,2,0.6,3.2,1c1.1-0.1,2.5-0.3,3.8-0.3c9.8,0,19.5,0,29.2,0c2.6,0,5.2-0.6,7.8-0.4
				c2.2,0.2,2.8-2.2,4.7-2.4c0.3-2,2.4-2.3,3.6-3.1c1.3-0.9,2.1-2.6,4-2.7c0.2,0,0.3-0.5,0.4-0.8c0.2-0.3,0.2-0.8,0.5-1.1
				c0.9-0.8,1.9-1.5,2.7-2.5c0.5-0.6,0.6-1.6,1.1-2.3c0.5-0.7,1.4-1.1,1.7-1.9c0.3-0.7,0.5-1.1,1.2-1.2c0.3-0.1,0.6-0.5,0.6-0.8
				c0.1-2.3,2.6-3.5,2.5-5.9c0-0.3,0.9-0.7,1.3-1.1c0.2-1.1,0.5-2.2,0.7-3.3c2.1-0.4,1.3-2.2,1.5-3.4c0.2-0.9,0.1-2.2,0.7-2.7
				c1-0.9,1-1.9,1.1-3c0.2-3.5,0.3-7,0.4-10.5C931.8,72.8,931.7,69.4,931.7,66.8z M947,132.5c-1.1,0-2.1,0-3.1,0c-14,0-28,0-42,0
				c-27.6,0-55.2,0-82.8,0c-0.7,0-1.5,0-2.2,0.1c-0.4,0.1-0.9,0.5-1,0.8c-0.1,0.3,0.3,0.8,0.6,1.1c0.3,0.3,1.2,0.4,1.2,0.6
				c0.1,1.4,1.3,1.2,2.1,1.5c0.4,0.2,1.2,0.2,1.3,0.5c0.7,1.7,2.2,1.3,3.5,1.5c1.7,0.2,3.5,0.2,5.3,0.2c34.5,0,69.1,0,103.7,0
				c2.2,0,4.3-0.2,6.5-0.4c0.5,0,1.2-0.2,1.3-0.4c0.4-1.4,1.6-1.3,2.5-1.5c1.6-0.3,1.8-2.2,3.3-2.6
				C947.2,133.9,947.1,133.1,947,132.5z M933.3,103.1c-2.8,0-1.3,2.5-2.2,3.7c-1.9,0.8-2,1.7-0.5,3.6c0.7-0.5,1.3-1.2,2-1.3
				c1.8-0.4,3.8,0,5.2-1.8c0.4-0.5,1.7-0.1,2.5-0.4c0.8-0.3,1.4-1,2.1-1.6c0.2-0.1,0.5-0.1,0.7-0.1c0.7-0.1,1.4-0.2,2.1-0.3
				c0.3-2.3,2.3-1.4,3.8-2.1c0-0.9,0.5-1.6,1.7-1.5c0.2,0,0.5-0.3,0.8-0.5c0.9-0.6,1.9-1.1,2.7-1.8c0.8-0.6,0.8-2.1,2.2-2.1
				c0.7-1.6,1.4-3.2,2.5-4.5c0-3,0-6-0.1-9.1c0-0.5-0.3-1.4-0.6-1.4c-1.3-0.2-0.9-1.6-1.3-1.9c-1.4-0.4-2.7-0.4-3.5-1
				c-2.3-1.9-4.9-1.4-7.1-0.4c-1.3,0.6-2.4,1-3.8,1.1c-0.9,0.1-1.9,0.2-2.8,0.3c-0.1,0.7-0.2,1.1-0.3,1.6c-0.3,1.7,0.3,3.7-1.6,5
				c-0.4,0.3-0.3,1.2-0.4,1.8c-0.1,1.2-0.2,2.4-0.3,3.6c-0.1,0.5-0.2,1.2-0.4,1.3c-1.5,0.5-1,1.8-1.3,2.8c-0.2,0.9,0,2.4-0.5,2.7
				C933.4,99.8,933.8,101.4,933.3,103.1z"/>
			<path d="M903.9,24.4c0.1-1,0.1-2,0.3-2.9c0.2-0.8,0.5-1.7,0.9-2.4c0.9-1.4,1-2.9-0.2-3.9c-0.9-0.8-0.7-1.7-0.8-2.6
				c-0.1-1.3-0.1-2.5-1.5-3.3c-0.3-0.2-0.5-0.8-0.5-1.2c-0.1-0.9,0-1.7,0-2.6c0.8-0.6,2-0.4,2.1-1.7c0-0.1,1.2-0.4,1.7-0.2
				c0.8,0.4,1.5,1,1.9,1.7c0.5,0.8,0.5,1.8,1.8,2c0.2,0,0.3,0.5,0.3,0.8c0.2,1.1,0.5,2.1,1.5,2.9c0.3,0.2,0.4,0.9,0.4,1.3
				c0,3.6,0,7.2-0.1,10.8c0,0.8-0.1,1.6-1.1,1.9c-0.2,0.1-0.5,0.6-0.5,0.9c-0.2,1.2-0.4,2.4-1.7,2.9c-0.2,0.1-0.3,0.7-0.4,1
				c-0.1,0.3,0,0.8-0.2,0.9c-2.2,1.2-1.7,3.2-1.8,5.1c-0.1,2,0,4,0.1,6c0,1.1,0,2.3,1.4,2.8c0.2,0.1,0.4,0.6,0.5,1
				c0,1.6,0,3.1,0,4.9c-1.9,0-3.6,0-5.4,0c-0.4-1-0.3-2.1-1.5-2.5c-0.5-0.2-0.5-1.4-0.8-2.1c-0.4-1-0.8-2-1.2-3
				c-0.2-0.6-0.5-1.2-0.5-1.8c-0.1-1.7-0.1-3.4-0.1-5c0-1.4-0.2-2.8,1.2-3.9c0.5-0.4,0.5-1.5,0.6-2.2c0.2-1.1,0.2-2.2,1.5-2.8
				c0.2-0.1,0.5-0.4,0.4-0.5C901.9,25,903,24.8,903.9,24.4z"/>
			<path d="M866.9,50.5c-2-0.1-3.8-0.2-5.5-0.4c-0.3-1.3-0.5-2.4-0.7-3.5c-0.5-0.2-1-0.5-1.5-0.8c-0.1-1.2-0.2-2.3-0.3-3.4
				c-0.1-0.9-0.2-1.7-1-2.6c-1.1-1.4-1.2-3.5-0.2-4.7c1.1-1.5,1.1-3,1.3-4.7c0.1-0.5,0.1-1,0.2-1.6c1.1-0.2,1.8-0.9,1.8-2.2
				c0-0.8,0.2-1.8,1.3-1.9c0.1,0,0.2-0.1,0.2-0.1c0.2-1.9,1.5-3.4,2.1-5c0.5-1.7,0.6-4-0.2-5.6c-0.7-1.5-1.7-2.8-1.9-4.5
				c0-0.3-0.9-0.5-1.4-0.9c0-1,0-2,0-2.8c0.8-0.8,1.6-1.5,2.5-2.4c0.5,0,1.5,0,2.4,0c0.9,1.9,3.6,2.7,2.9,5.3
				c0.7,0.3,1.2,0.5,1.7,0.7c0.5,4.8,0.4,9.6,0.2,14.4c0,0.3-0.1,0.8-0.3,0.9c-2.1,0.5-1.3,2.4-1.9,3.7c-0.5,0.2-1,0.4-1.5,0.6
				c-0.2,0.8-0.3,1.5-0.5,2.2c-0.1,0.3,0,0.8-0.2,0.9c-2.3,1-1.3,3.1-1.5,4.8c-0.2,1.3,0,2.5,0.1,3.8c0,0.9,0.4,1.5,0.9,2.2
				c0.8,1.2,1.1,2.9,1.3,4.4C867.4,48.2,867.1,49.2,866.9,50.5z"/>
			<path d="M880.4,30.3c0.1-1.1,0.2-2.1,0.4-3.3c0.9-0.3,1.8-0.8,1.8-2c0-0.4,0.2-1.1,0.5-1.3c1.8-1.1,1.4-2.8,1.4-4.4
				c0.1-2.6,0-5.3,0-7.9c-0.9-0.5-2.1-0.3-2-1.6c0-0.3-0.2-0.6-0.3-0.9c-1.3-2-1.1-1.9,0.2-3.9c1-1.5,2-1.9,3.3-1.7
				c0.8,0.6,1.3,1.2,2,1.7c0.2,0.1,0.6,0.2,0.6,0.3c0.5,2,2.5,3.4,2.2,5.7c-0.1,0.9,0.2,1.7,1,2.5c1.4,1.6,1.1,5.3-0.2,7.1
				c-0.5,0.6-0.6,1.6-0.8,2.4c-0.3,1.4,0.2,3.1-1.6,3.9c-0.3,0.1-0.2,0.9-0.4,1.3c-0.4,0.8-0.2,2-1.5,2.2c-2,3.2-3.2,6.6-2,10.5
				c1.8,1.2,1,4.1,3.2,5.2c0.1,1.2,0.2,2.5,0.3,4c-2,0.1-3.8,0.2-5.2,0.3c-1.1-0.6-0.7-2.1-2-2.2c-0.2,0-0.5-1.2-0.5-1.9
				c-0.1-1.1-0.5-2-1.9-2.2c0-4.4,0-8.7,0-13.1C879.3,30.8,879.8,30.6,880.4,30.3z"/>
			<path class="st2" d="M931.7,66.8c0,2.7,0.1,6,0.1,9.3c-0.1,3.5-0.2,7-0.4,10.5c0,1.1-0.1,2.1-1.1,3c-0.6,0.5-0.5,1.8-0.7,2.7
				c-0.2,1.3,0.6,3-1.5,3.4c-0.2,1.1-0.4,2.2-0.7,3.3c-0.4,0.3-1.3,0.7-1.3,1.1c0.1,2.4-2.4,3.7-2.5,5.9c0,0.3-0.4,0.8-0.6,0.8
				c-0.7,0.2-0.9,0.6-1.2,1.2c-0.3,0.7-1.3,1.2-1.7,1.9s-0.5,1.7-1.1,2.3c-0.8,0.9-1.8,1.6-2.7,2.5c-0.2,0.2-0.3,0.7-0.5,1.1
				c-0.1,0.3-0.3,0.8-0.4,0.8c-1.9,0-2.7,1.8-4,2.7c-1.2,0.8-3.2,1.2-3.6,3.1c-1.8,0.2-2.5,2.6-4.7,2.4c-2.6-0.2-5.2,0.4-7.8,0.4
				c-9.8,0.1-19.5,0-29.2,0c-1.3,0-2.7,0.2-3.8,0.3c-1.2-0.4-2.2-0.7-3.2-1c-0.8-0.2-1.8-0.1-2-1.3c0-0.2-0.6-0.4-0.9-0.6
				c-0.4-0.3-0.8-0.6-1.1-0.9s-0.8-0.6-1.1-1c-0.3-0.3-0.6-0.6-1-0.9c-0.3-0.3-0.6-0.7-1-0.8c-1.7-0.8-3.4-2.2-4.5-3.8
				c-0.1-0.2-0.3-0.4-0.5-0.5c-1.8-1.1-3.2-2.5-3.8-4.7c-0.1-0.3-0.3-0.9-0.6-0.9c-0.8-0.2-1.1-0.7-1.3-1.4c-0.2-0.5-1-0.8-1.7-1.3
				c-0.1-0.8-0.3-1.9-0.5-3c-2.2,0.2-1.6-2.2-2.7-3.3c-0.9-0.8-0.8-2.8-1.2-4.5c-1.3-0.3-1.5-1.5-1.6-2.9c-0.1-1.3,0.3-2.8-1.4-3.5
				c-0.2-0.1-0.4-0.7-0.4-1c-0.2-7.3-0.9-14.7-0.2-21.9c0.8-0.6,1.5-1.1,2.2-1.6c0.4-0.2,0.8-0.4,1.3-0.5c0.5-0.1,1.1,0,1.7,0
				c28.8,0,57.5,0,86.3,0C925.9,64.2,929,63.6,931.7,66.8z"/>
			<path class="st2" d="M947,132.5c0,0.7,0.2,1.4,0.1,1.4c-1.5,0.3-1.7,2.3-3.3,2.6c-0.9,0.2-2.1,0.1-2.5,1.5
				c-0.1,0.2-0.8,0.4-1.3,0.4c-2.2,0.2-4.3,0.4-6.5,0.4c-34.5,0-69.1,0-103.7,0c-1.8,0-3.5,0-5.3-0.2c-1.2-0.1-2.8,0.3-3.5-1.5
				c-0.1-0.3-0.8-0.3-1.3-0.5c-0.8-0.3-2-0.1-2.1-1.5c0-0.2-0.8-0.3-1.2-0.6c-0.3-0.3-0.7-0.8-0.6-1.1c0.1-0.3,0.6-0.7,1-0.8
				c0.7-0.1,1.4-0.1,2.2-0.1c27.6,0,55.2,0,82.8,0c14,0,28,0,42,0C944.9,132.5,945.9,132.5,947,132.5z"/>
			<path class="st2" d="M933.3,103.1c0.5-1.7,0.1-3.3,1.7-4.4c0.5-0.4,0.3-1.8,0.5-2.7c0.2-1-0.2-2.3,1.3-2.8
				c0.3-0.1,0.4-0.8,0.4-1.3c0.1-1.2,0.2-2.4,0.3-3.6c0.1-0.6,0-1.6,0.4-1.8c1.9-1.3,1.3-3.3,1.6-5c0.1-0.5,0.2-0.9,0.3-1.6
				c0.9-0.1,1.9-0.2,2.8-0.3c1.3-0.1,2.5-0.5,3.8-1.1c2.2-1,4.8-1.5,7.1,0.4c0.8,0.6,2.1,0.6,3.5,1c0.4,0.3-0.1,1.7,1.3,1.9
				c0.3,0,0.6,0.9,0.6,1.4c0.1,3,0,6,0.1,9.1c-1.1,1.3-1.8,3-2.5,4.5c-1.4,0-1.4,1.5-2.2,2.1c-0.9,0.7-1.8,1.2-2.7,1.8
				c-0.3,0.2-0.5,0.5-0.8,0.5c-1.2-0.1-1.7,0.6-1.7,1.5c-1.5,0.7-3.5-0.2-3.8,2.1c-0.7,0.1-1.4,0.2-2.1,0.3c-0.2,0-0.5,0-0.7,0.1
				c-0.7,0.5-1.3,1.2-2.1,1.6c-0.8,0.3-2.1-0.1-2.5,0.4c-1.4,1.8-3.4,1.5-5.2,1.8c-0.7,0.2-1.3,0.9-2,1.3c-1.5-1.9-1.4-2.8,0.5-3.6
				C932,105.6,930.5,103.1,933.3,103.1z"/>
		</g>
	</g>
</g>
<g id="Ebene_2">
	<path class="st3" d="M826.6,71.3c-0.1-3-0.2-5.8,2-8.2c2.5-2.8,6.7-3.4,10.2-3.4c15,0,82.7,0,82.7,0s14.1-1,14.3,10.8
		s-6.8,39.9-26.4,56.4c0,0-57.4,0-57.5,0c-1,0-3.3-2.8-3.9-3.4c-3.3-3.1-6.2-6.6-8.8-10.3c-8.5-12.1-12.2-25.8-12.5-40.5
		C826.6,72.2,826.6,71.8,826.6,71.3z"/>
	<path class="st4" d="M862.6,5.8c0,0,10.6,9.7-0.2,24.9c0,0-5.2,5.9,2.2,17.8"/>
	<path class="st4" d="M883.8,5.8c0,0,10.6,9.7-0.2,24.9c0,0-5.2,5.9,2.2,17.8"/>
	<path class="st4" d="M903.8,5.8c0,0,10.6,9.7-0.2,24.9c0,0-5.2,5.9,2.2,17.8"/>
	<line class="st5" x1="6.9" y1="99.9" x2="748.8" y2="99.9"/>
	<line class="st5" x1="1016.3" y1="99.9" x2="1758.2" y2="99.9"/>
</g>
<g id="Ebene_3">
	<path class="st3" d="M935.3,75.7c0,0,29.1-7.9,28.3,9.1c0,0,3.9,26.6-44.1,30.5"/>
</g>
<g id="Ebene_4">
	<path class="st3" d="M811.2,127.2h138.7c1.7,0,2.5,2.1,1.2,3.2l-10.9,9.7c-1.4,1.2-3.1,1.9-4.9,1.9H826.4c-1.5,0-3-0.6-4.1-1.6
		l-12-10.7C809.2,128.8,809.9,127.2,811.2,127.2z"/>
</g>
</svg>
