<?xml version="1.0" encoding="utf-8"?>
<!-- Generator: Adobe Illustrator 25.4.1, SVG Export Plug-In . SVG Version: 6.00 Build 0)  -->
<svg version="1.1" xmlns="http://www.w3.org/2000/svg" xmlns:xlink="http://www.w3.org/1999/xlink" x="0px" y="0px"
	 viewBox="0 0 1762.5 96.2" style="enable-background:new 0 0 1762.5 96.2;" xml:space="preserve">
<style type="text/css">
	.st0{display:none;}
	.st1{display:inline;}
	.st2{fill:#FFFFFF;}
	.st3{fill:none;stroke:#000000;stroke-width:6;stroke-miterlimit:10;}
	.st4{fill:none;stroke:#000000;stroke-width:8;stroke-linecap:round;stroke-miterlimit:10;}
</style>
<g id="Layer_1" class="st0">
	<g class="st1">
		<path class="st2" d="M1732.6,57.8c0,13,0,26.1,0,39.1c-576,0-1152,0-1728,0c0-13,0-26.1,0-39.1c1-0.1,2.2-0.5,2.1,1.3
			c0,0.2,0.4,0.5,0.7,0.5c1.4,0.1,2.8,0.2,4.2,0.2c243.9,0,487.8,0,731.7,0c1.4,0,2.8-0.1,4.2-0.2c0.6,0,0.9-0.2,0.8-0.9
			c0-0.7,0.3-1.1,1-1.1c0.3,0,0.8-0.5,0.8-0.8c0.1-2.5,0-4.9,0-7.4c0-0.6-0.2-1-0.9-0.9c-0.8,0-1-0.4-1-1.1c0-0.3-0.1-0.6-0.1-1.1
			c-1.6,0-3.1,0-4.6,0c-244.1,0-488.1,0-732.2,0c-1.3,0-2.6,0-3.9,0.1c-0.3,0-0.7,0.4-0.8,0.6c-0.3,1.6-0.3,1.6-2,1.4
			c0-16.2,0-32.5,0-48.7c576,0,1152,0,1728,0c0,16.2,0,32.5,0,48.7c-1.8,0.2-1.7,0.2-2.1-1.4c-0.1-0.3-0.6-0.6-0.9-0.6
			c-1.6-0.1-3.2-0.1-4.8-0.1c-235,0-470,0-705,0c-1.1,0-2.2,0-3.2,0c-0.8,0-1.7,0.1-2.5,0.1c-0.1,1.1,0.1,2.3-1.5,2.1
			c-0.1,0-0.4,0.5-0.4,0.7c0,2.5,0,5,0,7.5c0,0.3,0.4,0.8,0.7,0.8c0.9,0,1.2,0.4,1.2,1.3c0,0.2,0.5,0.7,0.8,0.7
			c1.3,0.1,2.6,0.2,3.8,0.2c235.7,0,471.4,0,707.1,0c1.3,0,2.6-0.1,3.9-0.2c0.3,0,0.7-0.4,0.7-0.5
			C1730.4,57.3,1731.6,57.7,1732.6,57.8z M971.4,89.1c0-1.2,0-2.2,0-3.1c0-0.7,0.2-1,0.9-1.1c0.3,0,0.8-0.6,0.8-0.9
			c0.1-3.9,0.1-7.8,0-11.6c0-0.3-0.5-0.8-0.8-0.9c-0.7-0.1-0.9-0.4-0.9-1.1c0-0.9-0.1-1.8-0.2-2.8c-1.5,0.3-2-0.3-1.9-1.6
			c0.1-0.7-0.2-1.4-0.3-2c-0.8-0.1-1.6-0.2-2.3-0.2c-0.7,0-1.1-0.2-1-0.9c0.1-0.7-0.3-1-1-1c-0.6,0.1-1.1-0.1-1-0.8
			c0.1-0.9-0.4-1.1-1.2-1.1c-0.7,0-1.3-0.1-2-0.3c-0.2,0-0.6-0.4-0.6-0.6c0-1.1-0.6-1.1-1.4-1.1c-0.6,0-1.3,0-1.9-0.2
			c-0.3-0.1-0.7-0.5-0.8-0.8c0-0.7-0.4-1-1.1-1c-0.7,0-1.1-0.2-1-1c0.1-0.7-0.2-1.1-0.9-1c-0.7,0-0.9-0.3-0.9-0.9
			c0-0.6,0.3-0.9,0.9-0.8c0.8,0,1.1-0.4,1-1.1c-0.1-0.6,0.1-1.1,0.9-1.1c0.8,0,0.9-0.4,0.9-1c0-2.5,0-5,0-7.4c0-0.7-0.2-1-1-1
			c-0.6,0-0.9-0.3-0.8-0.9c0-0.4-0.1-0.7-0.1-1.2c-1.8,0.6-1.8-0.6-1.8-1.8c0-0.6-0.1-1.2-0.1-1.9c-0.6-0.1-1.2-0.1-1.8-0.2
			c-0.1-0.6-0.1-1.2-0.1-1.9c-0.3,0-0.7-0.1-1-0.1c-0.6,0-1-0.1-0.9-0.8c0.1-0.9-0.4-0.9-1.1-1c-0.3,0-0.6-0.5-0.8-0.8
			c-0.2-0.2-0.1-0.6-0.2-0.9c-1-0.1-2-0.1-2.9-0.3c-0.4-0.1-0.9-0.5-0.9-0.7c-0.1-0.7-0.4-0.9-1.1-1c-2.4-0.1-4.9-0.2-7.3-0.4
			c-0.3,0-0.9-0.4-1-0.7c-0.1-0.7-0.5-0.9-1.2-0.9c-0.6,0-1.3-0.2-1.9-0.2c-0.7,0-1.1-0.1-1.2-1c0-0.2-0.6-0.6-0.9-0.6
			c-1.9-0.2-3.8-0.3-5.7-0.4c-0.6,0-0.9-0.2-1-0.9c0-0.3-0.5-0.8-0.9-0.8c-0.8,0-1.2-0.4-1.1-1.2c0.1-0.7-0.2-1.1-1-1.1
			c-0.3,0-0.7-0.5-0.8-0.9c-0.2-1.2-0.2-2.5-0.2-3.7c0-0.7-0.2-1.1-1-1c-0.8,0.1-1.1-0.2-1-1c0.1-0.7-0.2-1.1-0.9-1
			c-0.6,0.1-0.9-0.2-0.9-0.8c0.1-0.8-0.2-1.2-1.1-1.1c-0.6,0.1-0.9-0.2-0.9-0.8c0-0.3-0.1-0.6-0.1-1c-0.4,0-0.8,0-1.1-0.1
			c-0.3-0.1-0.8-0.4-0.8-0.6c0-1-0.4-1.3-1.4-1.3c-0.6,0-1.2-0.1-1.8-0.2c-0.3-0.1-0.7-0.4-0.7-0.6c0-1-0.5-1.1-1.3-1.1
			c-0.6,0-1.2-0.1-1.8-0.1c-9.9,0-19.8-0.1-29.6-0.1c-2.3,0-4.6,0.2-6.9,0.3c-0.3,0-0.9,0.5-0.9,0.7c0,0.8-0.4,1-1.1,1
			c-0.3,0-1,0.4-1,0.5c0.1,1.2-0.6,1.3-1.6,1.4c-1,0.1-2.5-0.3-2.3,1.6c0,0.1-0.4,0.3-0.6,0.4c-0.3,0.1-0.7,0.1-1.2,0.1
			c0.2,1.4-0.3,2.2-1.8,1.9c-0.1,1.1-0.2,2-0.4,3c-0.1,0.3-0.4,0.8-0.6,0.7c-0.9,0-1.2,0.4-1.1,1.2c0,0.7-0.1,1.4-0.2,2
			c0,0.2-0.2,0.6-0.3,0.5c-1.3-0.1-1.2,0.8-1.4,1.7c-0.1,0.4-1.1,0.5-1.6,0.8c-0.5,0.4,0,1.5-1.2,1.5c-1.3,0-2.7,0.1-4.1,0.2
			c-0.6,0-1,0.1-1.1,0.8c0,0.3-0.5,0.7-0.9,0.8c-1.3,0.2-2.6,0.2-3.9,0.4c-0.3,0-0.8,0.4-0.8,0.7c-0.1,0.7-0.4,0.8-1,0.8
			c-2,0-3.9,0.2-5.9,0.2c-0.7,0-1,0.2-1.1,0.9c0,0.3-0.5,0.6-0.8,0.8c-0.5,0.2-1.1,0.2-1.7,0.2c-0.8,0-1.5,0-1.4,1.1
			c0,0.2-0.3,0.5-0.5,0.5c-0.7,0.2-1.4,0.2-2.1,0.5c-0.3,0.1-0.8,0.5-0.8,0.8c-0.1,0.7-0.5,0.9-1.1,0.9c-0.3,0-0.7,0.1-1,0.1
			c-0.1,0.7-0.1,1.3-0.2,1.8c-0.7,0.1-1.2,0.1-1.8,0.2c-0.1,1.2-0.2,2.4-0.2,3.7c-1.8-0.4-1.7,0.8-1.8,2c0,0.8-0.1,1.7-0.1,2.5
			c0,0.7-0.1,1.2-1,1.3c-0.3,0-0.7,0.6-0.7,0.9c0,0.4,0.4,1,0.7,1c0.9,0.1,1,0.5,1,1.3c0,0.6,0.1,1.2,0.1,1.8c0,0.7,0.2,1.1,1,1.2
			c0.3,0,0.7,0.5,0.8,0.9c0.2,0.6,0.2,1.4,0.1,2c0,0.3-0.5,0.8-0.8,0.9c-0.6,0.1-1,0.2-1,0.9c0.1,0.8-0.4,1-1.1,1
			c-0.3,0-0.8,0.4-0.8,0.7c0,0.9-0.5,1-1.2,1c-0.6,0-1.3,0-1.9,0.2c-0.3,0.1-0.8,0.5-0.8,0.7c0,0.7-0.3,1-1,1
			c-0.6,0-1.3,0.2-1.9,0.2c-0.7,0-1,0.3-1,1c0,0.7-0.3,1-1,0.9c-0.3,0-0.6,0.1-1,0.1c0,1,0,2.1-1.5,1.8c-0.1,0-0.3,0.6-0.6,1
			c-0.2,0.3-0.5,0.8-0.7,0.8c-0.9,0-1,0.5-1,1.2c0,0.6-0.2,1.2-0.2,1.8c0,0.7-0.2,0.9-0.9,1c-0.3,0-0.8,0.5-0.8,0.8
			c-0.2,1.2-0.2,2.5-0.3,3.7c0,0.7-0.1,1.1-0.9,1.3c-0.2,0-0.6,0.5-0.6,0.8c-0.1,1.4,0,2.8,0,4.2c0,0.3,0.2,0.8,0.4,0.8
			c1.4,0.1,1.1,1.1,1.2,1.9c0.1,1,0.1,2.1,0.2,3.1c0,0.3,0.3,0.8,0.5,0.8c1.2,0,1.2,0.9,1.2,1.7c0,1,0.2,1.9,0.2,2.9
			c0,0.8,0,1.5,1.1,1.4c0.2,0,0.6,0.4,0.6,0.6c-0.1,1.2,0.7,1.2,1.6,1.2c0.6,0,1.1,0,1.7,0c0.6,0,0.9-0.2,0.9-0.8
			c-0.1-0.9,0.4-1,1.2-1c1.5,0,3,0,4.5,0c0.4-1.7,0.4-1.7,2.1-1.9c0.4,0,0.7-0.1,1.1-0.1c0.6,0,0.9-0.2,0.9-0.8
			c0-0.3,0.1-0.6,0.2-1.1c1.6,0,3.2,0,4.7,0c0.7,0,1.1-0.2,1-0.9c0-0.7,0.3-1,1-1c1,0,2.1-0.2,3.1-0.3c0.8,0,1.5-0.1,1.5-1.2
			c0-0.2,0.3-0.5,0.5-0.5c1.6,0,3.2,0.1,4.8,0.1c0.1,0,0.4,0.3,0.4,0.5c0,1,0.6,1.2,1.4,1.1c0.7,0,1,0.2,0.9,0.9
			c-0.1,0.9,0.3,1.1,1.1,1.1c3.7,0,7.4,0,11.2,0c0.7,0,1.1-0.1,1.1-0.9c0-0.7,0.4-0.9,1.1-0.9c1.8-0.1,3.6-0.2,5.4-0.3
			c0.8,0,1.5,0,1.5-1c0-0.2,0.4-0.5,0.6-0.5c1.4-0.1,2.8-0.2,4.2-0.3c0.3,0,0.9,0.3,0.9,0.5c-0.1,1.3,0.7,1.4,1.6,1.4
			c0.7,0,1.4,0.3,2.1,0.4c0.1,0.6,0.1,1.1,0.2,1.7c0.4,0,0.7,0,1,0.1c9.3,0,18.5,0.1,27.8,0.1c2.9,0,5.8-0.1,8.6-0.2
			c0.7,0,1.1-0.2,1-0.9c-0.1-0.8,0.4-1.1,1.1-1.2c0.3,0,0.8-0.5,0.8-0.8c0.1-0.8,0.5-1,1.2-1c1.3,0.1,2.5,0.1,3.8,0.1
			c0.6,0,0.9,0.2,1.1,0.9c0.1,0.3,0.6,0.7,0.9,0.8c1.9,0.2,3.7,0.3,5.6,0.3c0.8,0,1.2,0.2,1.2,1.1c0,0.3,0.5,0.8,0.8,0.8
			c3.9,0.1,7.8,0.1,11.8,0c0.3,0,0.8-0.5,0.8-0.7c0-1,0.5-1.2,1.3-1.2c0.5,0,1.1,0,1.7-0.2c0.3-0.1,0.8-0.5,0.8-0.8
			c0.1-0.9,0.5-1.1,1.3-1c1,0.1,2,0.2,3,0.2c1.2,0,2.1,0.1,1.9,1.6c1,0.1,1.9,0.2,2.8,0.3c0.7,0,1.1,0.2,1,1c-0.1,0.9,0.4,1,1.1,1
			c1.5,0,3,0.1,4.7,0.2c-0.3,1.5,0.4,1.9,1.6,1.7c0.5,0,1,0,1.4,0.1c0.3,0.1,0.9,0.5,0.9,0.8c0.1,0.9,0.5,1,1.3,1c1.5,0,2.9,0,4.4,0
			c0.2,0.9,0.4,1.8,0.7,1.9c1.6,0.1,3.3,0.1,5,0.1c0.1-1.4,0.3-2.6,0.4-3.9C969.4,89.6,969.6,88.7,971.4,89.1z"/>
		<path d="M4.6,48.4c1.8,0.2,1.7,0.2,2-1.4c0.1-0.3,0.5-0.6,0.8-0.6c1.3-0.1,2.6-0.1,3.9-0.1c244.1,0,488.1,0,732.2,0
			c1.5,0,3,0,4.6,0c0.1,0.5,0.2,0.8,0.1,1.1c0,0.7,0.2,1.2,1,1.1c0.7,0,0.9,0.3,0.9,0.9c0,2.5,0,4.9,0,7.4c0,0.3-0.5,0.8-0.8,0.8
			c-0.8,0.1-1.1,0.4-1,1.1c0,0.6-0.2,0.8-0.8,0.9c-1.4,0-2.8,0.2-4.2,0.2c-243.9,0-487.8,0-731.7,0c-1.4,0-2.8-0.1-4.2-0.2
			c-0.3,0-0.7-0.4-0.7-0.5c0.2-1.8-1-1.4-2.1-1.3C4.6,54.6,4.6,51.5,4.6,48.4z"/>
		<path d="M1732.6,57.8c-1-0.1-2.2-0.5-2.1,1.3c0,0.2-0.4,0.5-0.7,0.5c-1.3,0.1-2.6,0.2-3.9,0.2c-235.7,0-471.4,0-707.1,0
			c-1.3,0-2.6-0.1-3.8-0.2c-0.3,0-0.8-0.4-0.8-0.7c0-0.8-0.3-1.2-1.2-1.3c-0.2,0-0.7-0.5-0.7-0.8c-0.1-2.5,0-5,0-7.5
			c0-0.3,0.3-0.8,0.4-0.7c1.7,0.2,1.5-1,1.5-2.1c0.9,0,1.7-0.1,2.5-0.1c1.1,0,2.2,0,3.2,0c235,0,470,0,705,0c1.6,0,3.2,0,4.8,0.1
			c0.3,0,0.8,0.4,0.9,0.6c0.3,1.6,0.3,1.6,2.1,1.4C1732.6,51.5,1732.6,54.6,1732.6,57.8z"/>
		<path d="M971.4,89.1c-1.7-0.4-2,0.5-2,1.7c0,1.2-0.2,2.5-0.4,3.9c-1.7,0-3.3,0.1-5-0.1c-0.3,0-0.5-1-0.7-1.9c-1.5,0-2.9,0-4.4,0
			c-0.7,0-1.2-0.1-1.3-1c0-0.3-0.5-0.6-0.9-0.8c-0.4-0.2-0.9-0.2-1.4-0.1c-1.2,0.1-2-0.2-1.6-1.7c-1.6-0.1-3.1-0.2-4.7-0.2
			c-0.7,0-1.2-0.1-1.1-1c0.1-0.8-0.3-0.9-1-1c-0.9,0-1.8-0.2-2.8-0.3c0.2-1.5-0.7-1.7-1.9-1.6c-1,0-2-0.1-3-0.2
			c-0.7,0-1.2,0.2-1.3,1c0,0.3-0.5,0.7-0.8,0.8c-0.5,0.2-1.1,0.2-1.7,0.2c-0.9,0-1.3,0.2-1.3,1.2c0,0.2-0.5,0.7-0.8,0.7
			c-3.9,0-7.8,0-11.8,0c-0.3,0-0.8-0.5-0.8-0.8c0-0.9-0.4-1-1.2-1.1c-1.9,0-3.8-0.1-5.6-0.3c-0.3,0-0.8-0.4-0.9-0.8
			c-0.2-0.7-0.5-0.8-1.1-0.9c-1.3,0-2.5-0.1-3.8-0.1c-0.7,0-1.1,0.2-1.2,1c0,0.3-0.5,0.8-0.8,0.8c-0.8,0.1-1.2,0.4-1.1,1.2
			c0.1,0.8-0.3,0.9-1,0.9c-2.9,0-5.8,0.2-8.6,0.2c-9.3,0-18.5-0.1-27.8-0.1c-0.3,0-0.6,0-1-0.1c-0.1-0.6-0.1-1.1-0.2-1.7
			c-0.7-0.1-1.4-0.4-2.1-0.4c-1,0-1.7-0.1-1.6-1.4c0-0.1-0.6-0.5-0.9-0.5c-1.4,0-2.8,0.1-4.2,0.3c-0.2,0-0.6,0.3-0.6,0.5
			c0,1.1-0.7,1-1.5,1c-1.8,0.1-3.6,0.2-5.4,0.3c-0.7,0-1.1,0.2-1.1,0.9c0,0.8-0.4,0.9-1.1,0.9c-3.7,0-7.4,0-11.2,0
			c-0.8,0-1.2-0.2-1.1-1.1c0.1-0.7-0.3-1-0.9-0.9c-0.8,0.1-1.4-0.1-1.4-1.1c0-0.2-0.2-0.5-0.4-0.5c-1.6-0.1-3.2-0.1-4.8-0.1
			c-0.2,0-0.5,0.3-0.5,0.5c0,1.1-0.7,1.1-1.5,1.2c-1,0-2.1,0.2-3.1,0.3c-0.7,0-1.1,0.2-1,1c0,0.8-0.3,0.9-1,0.9c-1.5,0-3.1,0-4.7,0
			c-0.1,0.5-0.2,0.8-0.2,1.1c0,0.6-0.3,0.9-0.9,0.8c-0.4,0-0.7,0-1.1,0.1c-1.7,0.2-1.7,0.2-2.1,1.9c-1.4,0-3,0-4.5,0
			c-0.8,0-1.2,0.1-1.2,1c0,0.6-0.3,0.9-0.9,0.8c-0.6,0-1.1,0-1.7,0c-0.9,0-1.6,0-1.6-1.2c0-0.2-0.4-0.6-0.6-0.6
			c-1.1,0.1-1.1-0.6-1.1-1.4c0-1-0.2-1.9-0.2-2.9c0-0.9,0-1.7-1.2-1.7c-0.2,0-0.4-0.5-0.5-0.8c-0.1-1-0.2-2.1-0.2-3.1
			c-0.1-0.8,0.2-1.9-1.2-1.9c-0.1,0-0.3-0.5-0.4-0.8c0-1.4-0.1-2.8,0-4.2c0-0.3,0.3-0.8,0.6-0.8c0.8-0.1,0.9-0.6,0.9-1.3
			c0-1.2,0.1-2.5,0.3-3.7c0-0.3,0.5-0.8,0.8-0.8c0.7-0.1,0.9-0.3,0.9-1c0-0.6,0.2-1.2,0.2-1.8c0-0.8,0.1-1.2,1-1.2
			c0.2,0,0.5-0.5,0.7-0.8c0.2-0.3,0.4-1,0.6-1c1.5,0.2,1.5-0.8,1.5-1.8c0.4,0,0.7-0.1,1-0.1c0.7,0,1.1-0.2,1-0.9c0-0.7,0.3-1,1-1
			c0.6,0,1.3-0.2,1.9-0.2c0.7,0,1-0.2,1-1c0-0.3,0.5-0.6,0.8-0.7c0.6-0.2,1.3-0.2,1.9-0.2c0.7,0,1.2-0.1,1.2-1
			c0-0.2,0.5-0.6,0.8-0.7c0.7-0.1,1.2-0.2,1.1-1c-0.1-0.7,0.4-0.8,1-0.9c0.3-0.1,0.7-0.5,0.8-0.9c0.1-0.7,0.1-1.4-0.1-2
			c-0.1-0.3-0.5-0.8-0.8-0.9c-0.8-0.1-1-0.4-1-1.2c0-0.6-0.1-1.2-0.1-1.8c0-0.7-0.1-1.2-1-1.3c-0.3,0-0.6-0.6-0.7-1
			c0-0.3,0.4-0.8,0.7-0.9c0.9-0.1,1-0.5,1-1.3c0-0.8,0.1-1.7,0.1-2.5c0-1.1,0-2.3,1.8-2c0.1-1.3,0.2-2.4,0.2-3.7
			c0.5-0.1,1.1-0.1,1.8-0.2c0-0.5,0.1-1.1,0.2-1.8c0.3,0,0.7-0.1,1-0.1c0.7,0,1-0.2,1.1-0.9c0-0.3,0.5-0.7,0.8-0.8
			c0.7-0.2,1.4-0.3,2.1-0.5c0.2-0.1,0.5-0.4,0.5-0.5c0-1.1,0.7-1.1,1.4-1.1c0.5,0,1.1-0.1,1.7-0.2c0.3-0.1,0.8-0.5,0.8-0.8
			c0.1-0.7,0.5-0.9,1.1-0.9c2,0,3.9-0.2,5.9-0.2c0.6,0,1-0.1,1-0.8c0-0.3,0.5-0.7,0.8-0.7c1.3-0.2,2.6-0.2,3.9-0.4
			c0.3,0,0.8-0.5,0.9-0.8c0.1-0.7,0.5-0.8,1.1-0.8c1.4,0,2.7-0.2,4.1-0.2c1.2,0,0.7-1.1,1.2-1.5c0.5-0.4,1.5-0.5,1.6-0.8
			c0.2-0.9,0.1-1.8,1.4-1.7c0.1,0,0.3-0.4,0.3-0.5c0.1-0.7,0.2-1.4,0.2-2c0-0.8,0.2-1.3,1.1-1.2c0.2,0,0.6-0.5,0.6-0.7
			c0.2-0.9,0.3-1.9,0.4-3c1.5,0.3,2.1-0.4,1.8-1.9c0.5,0,0.9,0,1.2-0.1c0.2-0.1,0.6-0.3,0.6-0.4c-0.2-1.9,1.4-1.5,2.3-1.6
			c1-0.1,1.7-0.1,1.6-1.4c0-0.2,0.6-0.5,1-0.5c0.7,0,1.1-0.2,1.1-1c0-0.3,0.6-0.7,0.9-0.7c2.3-0.2,4.6-0.3,6.9-0.3
			c9.9,0,19.8,0,29.6,0.1c0.6,0,1.2,0.1,1.8,0.1c0.8,0,1.3,0.1,1.3,1.1c0,0.2,0.4,0.6,0.7,0.6c0.6,0.2,1.2,0.3,1.8,0.2
			c0.9,0,1.4,0.2,1.4,1.3c0,0.2,0.5,0.5,0.8,0.6c0.3,0.1,0.7,0.1,1.1,0.1c0,0.4,0.1,0.7,0.1,1c0,0.6,0.3,0.9,0.9,0.8
			c0.9-0.1,1.2,0.3,1.1,1.1c0,0.6,0.3,0.9,0.9,0.8c0.8-0.1,1,0.3,0.9,1c-0.1,0.8,0.3,1.1,1,1s0.9,0.3,1,1c0,1.2,0.1,2.5,0.2,3.7
			c0,0.3,0.5,0.9,0.8,0.9c0.8,0.1,1.1,0.4,1,1.1c-0.1,0.8,0.2,1.1,1.1,1.2c0.3,0,0.8,0.5,0.9,0.8c0.1,0.7,0.4,0.9,1,0.9
			c1.9,0.1,3.8,0.2,5.7,0.4c0.3,0,0.9,0.4,0.9,0.6c0.1,0.8,0.5,1,1.2,1c0.6,0,1.3,0.2,1.9,0.2c0.7,0,1,0.2,1.2,0.9
			c0.1,0.3,0.6,0.7,1,0.7c2.4,0.2,4.9,0.3,7.3,0.4c0.7,0,1,0.2,1.1,1c0,0.3,0.6,0.7,0.9,0.7c0.9,0.2,1.9,0.2,2.9,0.3
			c0,0.3,0,0.7,0.2,0.9c0.2,0.3,0.5,0.8,0.8,0.8c0.7,0.1,1.2,0.1,1.1,1c-0.1,0.7,0.3,0.8,0.9,0.8c0.3,0,0.6,0.1,1,0.1
			c0.1,0.6,0.1,1.2,0.1,1.9c0.6,0,1.1,0.1,1.8,0.2c0.1,0.6,0.1,1.3,0.1,1.9c0,1.2,0,2.3,1.8,1.8c0.1,0.5,0.1,0.9,0.1,1.2
			c0,0.6,0.2,0.9,0.8,0.9c0.7,0,1,0.3,1,1c0,2.5,0,5,0,7.4c0,0.7-0.2,1.1-0.9,1c-0.8,0-0.9,0.5-0.9,1.1c0.1,0.7-0.2,1.1-1,1.1
			c-0.6,0-0.9,0.2-0.9,0.8c0,0.7,0.2,1,0.9,0.9c0.8,0,1,0.4,0.9,1c-0.1,0.7,0.3,1,1,1s1,0.2,1.1,1c0,0.3,0.4,0.7,0.8,0.8
			c0.6,0.2,1.3,0.2,1.9,0.2c0.8,0,1.4,0,1.4,1.1c0,0.2,0.3,0.5,0.6,0.6c0.7,0.1,1.3,0.3,2,0.3c0.8,0,1.2,0.2,1.2,1.1
			c-0.1,0.7,0.4,0.9,1,0.8c0.7-0.1,1.1,0.2,1,1c-0.1,0.8,0.3,0.9,1,0.9c0.8,0,1.5,0.1,2.3,0.2c0.1,0.7,0.4,1.4,0.3,2
			c-0.1,1.4,0.4,2,1.9,1.6c0.1,1,0.2,1.9,0.2,2.8c0,0.7,0.2,1,0.9,1.1c0.3,0,0.8,0.5,0.8,0.9c0.1,3.9,0.1,7.8,0,11.6
			c0,0.3-0.5,0.8-0.8,0.9c-0.7,0.1-0.9,0.4-0.9,1.1C971.4,86.9,971.4,87.9,971.4,89.1z M860.9,15.3c-0.1,1-0.2,2-0.4,2.8
			c-0.1,0.3-0.5,0.8-0.8,0.8c-0.8,0.1-0.9,0.5-0.9,1.1c0.1,2.7,0.1,5.4,0.2,8c0,0.3,0.4,0.8,0.6,0.8c0.8,0.1,0.9,0.5,0.9,1.2
			c0.1,4.3,0.3,8.6,0.4,12.9c0,0.6-0.1,1.2,0.8,1.2c0.9,0,1,0.5,1,1.2c0,2.5,0.1,5,0.2,7.5c0,0.6,0,1.1,0.8,1.1c0.8,0,1,0.5,1,1.2
			c0,2.4,0.1,4.9,0.2,7.3c0,0.4,0.4,1,0.6,1c1.1,0,1.1,0.6,1.1,1.4c0,4.3,0.1,8.6,0.2,13c0,0.4,0.4,1,0.6,1c1.1,0,1.2,0.6,1.2,1.5
			c0,0.5,0,1.1,0.2,1.7c0.1,0.3,0.4,0.6,0.6,0.7c0.8,0.2,1.7,0.3,2.5,0.3c8.6,0,17.2,0,25.8,0c1.2,0,2.5-0.1,3.6-0.2
			c0.5-0.7-0.3-2,1.1-1.9c0.9,0,1-0.4,1.1-1.2c0.1-3.7,0.2-7.4,0.3-11c0-0.7,0-1.3,1-1.4c0.2,0,0.5-0.6,0.5-1c0.2-2.5,0.3-5,0.5-7.4
			c0-0.4,0.4-1,0.6-1c0.8-0.1,0.9-0.6,0.9-1.3c0.1-3.1,0.2-6.3,0.4-9.5c0-0.3,0.3-0.9,0.6-1c0.9-0.1,0.9-0.7,0.9-1.4
			c0.1-3.7,0.3-7.4,0.4-11c0-0.7,0.1-1.1,0.9-1.2c0.2,0,0.6-0.6,0.6-0.9c0.2-1.9,0.2-3.8,0.3-5.7c0-0.7,0.1-1.2,0.9-1.3
			c0.2,0,0.6-0.4,0.6-0.7c0.1-0.8,0.1-1.5,0-2.3c0-0.2-0.3-0.7-0.5-0.7c-1.1,0-1-0.7-1.1-1.5c0-0.6-0.1-1.2-0.2-1.8
			c-0.1-0.3-0.4-0.5-0.6-0.6c-0.3-0.1-0.7-0.1-1.2-0.1c0.2-1.1,0.1-2.1-1.4-2c-0.1,0-0.4-0.5-0.4-0.8c0-0.8-0.3-1-1.1-1.1
			c-0.3,0-0.9-0.5-0.9-0.8c0-0.9-0.4-1.1-1.2-1c-0.5,0-1.1,0-1.1-0.7c0.1-1-0.4-1.1-1.3-1.1c-0.5,0-1.1-0.1-1.7-0.1
			c-9.1,0-18.2,0-27.2,0c-1.5,0-2.9,0-4.4,0c-0.1,0.7-0.2,1.2-0.3,1.8c-1.2,0.1-2.3,0.2-3.5,0.3c-0.1,0.6-0.2,1.1-0.2,1.7
			c-0.6,0.1-1.2,0.1-1.7,0.2c-0.1,0.6-0.1,1.1-0.2,1.7C862.1,15.2,861.5,15.3,860.9,15.3z M824.1,38.5c-0.1,1-0.2,1.8-0.2,2.7
			c0,0.7-0.1,1.2-1,1.2c-0.2,0-0.7,0.4-0.7,0.6c0,1.5,0,3.1,0,4.6c0,0.2,0.4,0.6,0.7,0.6c0.8,0,0.9,0.5,1,1.2c0,1.2,0.1,2.5,0.2,3.7
			c0,0.3,0.5,0.8,0.8,0.9c0.7,0.1,0.9,0.4,0.9,1.1c0.1,1.2,0.2,2.5,0.3,3.7c0,0.3,0.3,0.7,0.5,0.8c1,0,1.1,0.6,1.1,1.4
			c0,0.6,0.1,1.2,0.2,1.8c0.1,0.4,0.5,0.6,0.8,0.9s0.7,0.6,0.8,0.9c0.2,1.3,0.2,2.6,0.4,3.9c0,0.3,0.4,0.8,0.6,0.8
			c1.1-0.1,1.2,0.5,1.1,1.4c0,0.6,0,1.2,0.1,1.8c0.1,0.4,0.5,0.6,0.8,0.9c0.3,0.3,0.7,0.6,0.8,0.9c0.2,0.7,0.1,1.5,0.3,2.2
			c0.1,0.3,0.5,0.8,0.8,0.8c0.9,0,1.2,0.4,1.1,1.3c0,0.7,0,1.5,0.3,2.1c0.2,0.3,1.1,0.3,1.7,0.4c0.4,0.1,0.8,0.1,1.2,0.2
			c0.3,0.1,0.7,0.3,0.7,0.5c-0.1,1.3,0.8,1.2,1.7,1.2c1,0,2,0,3,0c0.7,0,1.2,0,1.3-1c0-0.2,0.5-0.6,0.8-0.6c1.9-0.2,3.8-0.3,5.7-0.4
			c0.8,0,1.3-0.1,1.4-1c0-0.2,0.6-0.5,1-0.5c1.8-0.2,3.6-0.3,5.4-0.4c0.7,0,0.9-0.2,1-0.9c0-2.6,0-5.2,0-7.9c0-0.3-0.4-0.7-0.7-0.8
			c-0.8-0.1-0.9-0.5-0.9-1.1c-0.1-2.5-0.2-5-0.4-7.4c0-0.4-0.3-1-0.5-1c-0.9-0.1-1-0.6-1-1.3c-0.1-3.8-0.2-7.5-0.3-11.3
			c0-0.6-0.1-1.1-0.9-1.1c-0.8,0-0.7-0.6-0.7-1.1c-0.1-3.1-0.2-6.2-0.4-9.3c0-0.3-0.3-1-0.4-1c-1.3,0-1.2-0.9-1.2-1.7
			c0-1.1-0.1-2.1-0.3-3.2c-0.1-0.3-0.5-0.8-0.8-0.8c-2,0-4,0-6,0c-0.2,0-0.7,0.4-0.7,0.7c-0.1,0.7-0.4,0.9-1,0.9
			c-1.3,0.1-2.5,0.1-3.8,0.3c-0.4,0-0.9,0.4-1,0.7c-0.1,0.7-0.5,0.8-1.1,0.8c-1.9,0.1-3.8,0.2-5.7,0.3c-0.7,0-1,0.3-0.9,0.9
			c0,0.7-0.3,1-1,0.9c-0.4,0-0.9,0.1-1.3,0.1c-1.2-0.2-1.8,0.4-1.7,1.6c0,0.1-0.1,0.1,0,0.1c-0.7,0.2-1.7,0.4-1.7,0.6
			C826.1,38.4,825.3,38.7,824.1,38.5z M946.2,40.4c0-0.3-0.1-0.4-0.1-0.6c-0.1-3-0.1-3-3-3.3c-0.3,0-0.8-0.5-0.8-0.7
			c0-1-0.5-1.1-1.3-1.1c-0.5,0-1-0.1-1.6-0.1c-0.7,0-1.2-0.2-1.1-1c0-0.8-0.4-0.9-1.1-0.9c-1.9-0.1-3.8-0.2-5.7-0.3
			c-0.3,0-0.9-0.2-0.9-0.4c0-1.4-1-1.1-1.9-1.2c-1-0.1-2.1-0.2-3.1-0.2c-0.6,0-0.9-0.2-1-0.9c0-0.3-0.4-0.7-0.7-0.7
			c-1.3-0.1-2.7-0.2-4.1-0.2c-0.7,0-1,0.1-1.1,0.9c0,0.3-0.5,0.9-0.8,0.9c-0.9,0-1,0.5-1,1.3c0,1.9-0.1,3.8-0.1,5.6
			c0,0.6-0.1,1.1-0.8,1c-0.8,0-1,0.4-1,1.1c-0.1,3.2-0.2,6.3-0.4,9.5c0,0.4-0.4,1-0.7,1.1c-0.7,0.2-0.9,0.5-0.9,1.2
			c-0.1,3.8-0.2,7.5-0.3,11.3c0,0.6-0.1,1-0.9,1.2c-0.3,0-0.6,0.6-0.7,1c-0.2,1.8-0.2,3.7-0.3,5.5c0,0.6-0.1,1.2-0.9,1.2
			c-0.2,0-0.6,0.5-0.7,0.8c-0.1,1.4-0.1,2.7-0.2,4.1c0,0.7,0.2,1.1,1,1.1c0.2,0,0.7,0.2,0.7,0.3c0,1.5,1.1,1.3,2,1.3
			c1,0,2,0.1,3,0.2c0.7,0,1.1,0.1,1.2,1c0,0.2,0.6,0.6,0.9,0.6c1.9,0.2,3.8,0.2,5.7,0.3c0.6,0,1,0.1,1,0.8c0,0.3,0.5,0.8,0.9,0.8
			c1.3,0.1,2.5,0.1,3.8,0.1c0.7,0,1.3-0.1,1.3-1c0-0.2,0.3-0.6,0.5-0.6c0.6-0.2,1.2-0.3,1.9-0.3c0.8,0,1.3-0.2,1.2-1.1
			c0-0.3,0.4-0.8,0.7-0.8c0.9,0,1-0.5,1.2-1.2c0.2-0.9-0.3-2.5,1.5-2.6c0.1,0,0.3-0.5,0.3-0.8c0.1-1.4,0.2-2.8,0.4-4.2
			c0-0.3,0.4-0.8,0.6-0.7c1.1,0.1,1.2-0.5,1.1-1.3c0-0.6,0.1-1.1,0.1-1.7c0-0.6,0.2-0.9,0.8-1c0.3,0,0.7-0.6,0.7-0.9
			c0.2-1.3,0.3-2.6,0.5-3.9c0-0.2,0.3-0.7,0.5-0.7c1.4,0.1,1.3-0.8,1.3-1.7c0-2,0.1-2,2-2.6c0-1.5,0-3.1,0-4.7
			c0-0.3,0.4-0.9,0.7-0.8c1.1,0,1.2-0.6,1.1-1.4c0-0.5,0.1-1,0.1-1.5c0-0.7,0.2-1,0.9-1.1c0.3,0,0.7-0.5,0.8-0.9
			c0.2-0.6-0.1-1-0.8-1c-0.8,0-0.9-0.4-0.9-1.1c0-0.9-0.1-1.8-0.2-2.7C947.3,40.5,946.8,40.5,946.2,40.4z M810.5,65.8
			c0,1.1-0.1,2-1.5,1.8c-0.1,0-0.5,0.5-0.5,0.8c0,0.9-0.4,1.2-1.2,1.1c-0.7-0.1-1,0.3-1,1c0.1,0.7-0.2,1-1,1c-0.3,0-0.7,0.5-0.7,0.8
			c-0.1,4-0.1,8-0.1,12c0,0.3,0.4,0.9,0.7,0.9c0.8,0.1,1,0.4,1.1,1.1c0,0.2,0.4,0.6,0.6,0.6c1,0,2,0,3-0.1c0.2,0,0.4-0.3,0.4-0.5
			c-0.1-1.1,0.7-1,1.4-1.2c0.9-0.2,2.5,0.5,2.6-1.5c0-0.1,0.5-0.3,0.8-0.3c1.3-0.1,2.6-0.2,3.9-0.4c0.3,0,0.8-0.4,0.8-0.6
			c-0.1-1.1,0.6-1.1,1.4-1.1c0.6,0,1.1-0.1,1.7-0.1c0.7,0,1.1-0.1,1.2-1c0-0.3,0.6-0.5,1-0.7c0.3-0.3,0.9-0.6,0.9-0.9
			c0.1-0.8,0.2-1.2,1.1-1.3c0.2,0,0.5-0.5,0.5-0.9c0-0.2-0.3-0.7-0.5-0.7c-1.1,0-1.1-0.6-1.1-1.4c0-0.6-0.2-1.2-0.2-1.8
			c0-0.6-0.2-1-0.9-0.9c-0.7,0.1-0.8-0.3-0.9-1c0-1.3-0.2-2.5-0.2-3.8c0-0.6-0.1-1-0.8-1.1c-0.3,0-0.7-0.5-0.8-0.9
			c-0.2-0.7-0.2-1.5-0.4-2.2c0-0.2-0.3-0.5-0.5-0.5c-1-0.1-2.1-0.2-3.4-0.2c0.5,1.9-0.7,2-1.9,2c-0.9,0-1.8,0.1-2.8,0.1
			c-0.7,0-1,0.3-0.9,0.9c0,0.3-0.1,0.5-0.1,0.8C811.8,65.7,811.2,65.7,810.5,65.8z M944.2,73.5c0,1.8,0,3.5,0,5.3
			c0,0.2,0.2,0.5,0.3,0.5c1.1,0,1.7,0.4,1.7,1.5c0,0.1,0.5,0.2,0.7,0.2c1.3,0.1,2.6,0.2,3.9,0.4c0.3,0,0.8,0.3,0.8,0.5
			c-0.1,1.3,0.8,1.2,1.6,1.2c1,0,2.1,0.2,3.1,0.2c0.7,0,1.1,0.1,1.2,1c0,0.2,0.5,0.7,0.8,0.7c0.9,0,1.5,0.2,1.5,1.2
			c0,0.2,0.4,0.5,0.6,0.5c1.3,0.1,2.7,0.1,4.1,0.1c0.3,0,0.7-0.5,0.7-0.8c0.2-1.8,0.2-3.7,0.4-5.5c0-0.4,0.4-0.7,0.7-1
			c0.3-0.4,0.7-0.7,0.8-1.1c0.1-0.6,0.1-1.3,0-1.9c0-0.3-0.2-0.8-0.4-0.8c-1.3-0.1-1.1-1-1.2-1.8c-0.1-1.1-0.2-2.3-0.3-3.4
			c-0.1-0.3-0.5-0.7-0.8-0.7c-0.7,0-1.2-0.2-1.1-1c0.1-0.7-0.2-1-1-1c-0.3,0-0.9-0.4-0.9-0.7c0-1-0.5-1.2-1.4-1.1
			c-0.5,0-0.9-0.1-1.4-0.1c-0.7,0-1.1-0.2-1-0.9c0.1-0.8-0.4-0.9-1-0.9c-0.9,0-1.8-0.1-2.6-0.1c-0.3-0.6-0.4-1.6-0.8-1.6
			c-1.1-0.2-2.2-0.1-3.3-0.1c-0.1,0.6-0.1,1.1-0.2,1.8c-1.8-0.4-1.8,0.7-1.8,1.9c0,0.3-0.1,0.6-0.1,1c0,0.7-0.2,1-0.9,0.9
			c-0.3,0-0.5,0.1-1,0.2c0,1.9,0,3.7,0,5.5C945.4,73.3,944.9,73.4,944.2,73.5z"/>
		<path class="st2" d="M860.9,15.3c0.6,0,1.2-0.1,1.8-0.1c0.1-0.6,0.1-1.1,0.2-1.7c0.6-0.1,1.1-0.1,1.7-0.2c0.1-0.6,0.2-1.1,0.2-1.7
			c1.2-0.1,2.3-0.2,3.5-0.3c0.1-0.6,0.2-1.1,0.3-1.8c1.5,0,3,0,4.4,0c9.1,0,18.2,0,27.2,0c0.6,0,1.1,0.1,1.7,0.1
			c0.8,0,1.3,0.1,1.3,1.1c0,0.8,0.5,0.8,1.1,0.7c0.8-0.1,1.2,0.1,1.2,1c0,0.3,0.5,0.7,0.9,0.8c0.8,0,1.1,0.3,1.1,1.1
			c0,0.3,0.3,0.8,0.4,0.8c1.5-0.1,1.5,0.9,1.4,2c0.5,0,0.8,0,1.2,0.1c0.3,0.1,0.6,0.4,0.6,0.6c0.2,0.6,0.2,1.2,0.2,1.8
			c0,0.8,0,1.5,1.1,1.5c0.2,0,0.5,0.4,0.5,0.7c0,0.8,0,1.5,0,2.3c0,0.3-0.4,0.7-0.6,0.7c-0.8,0.1-0.9,0.6-0.9,1.3
			c-0.1,1.9-0.2,3.8-0.3,5.7c0,0.3-0.4,0.9-0.6,0.9c-0.8,0.1-0.9,0.5-0.9,1.2c-0.1,3.7-0.2,7.4-0.4,11c0,0.7,0,1.3-0.9,1.4
			c-0.2,0-0.6,0.6-0.6,1c-0.2,3.1-0.3,6.3-0.4,9.5c0,0.6,0,1.1-0.9,1.3c-0.3,0-0.6,0.6-0.6,1c-0.2,2.5-0.3,4.9-0.5,7.4
			c0,0.4-0.3,1-0.5,1c-1,0.1-1,0.7-1,1.4c-0.1,3.7-0.2,7.4-0.3,11c0,0.8-0.2,1.2-1.1,1.2c-1.4-0.1-0.6,1.2-1.1,1.9
			c-1.1,0.1-2.3,0.2-3.6,0.2c-8.6,0-17.2,0-25.8,0c-0.8,0-1.7-0.1-2.5-0.3c-0.2,0-0.6-0.4-0.6-0.7c-0.1-0.5-0.2-1.1-0.2-1.7
			c0-0.9-0.1-1.5-1.2-1.5c-0.2,0-0.6-0.7-0.6-1c-0.1-4.3-0.2-8.6-0.2-13c0-0.8,0-1.4-1.1-1.4c-0.2,0-0.6-0.6-0.6-1
			c-0.1-2.4-0.2-4.9-0.2-7.3c0-0.7-0.1-1.2-1-1.2c-0.7,0-0.8-0.5-0.8-1.1c0-2.5-0.1-5-0.2-7.5c0-0.7-0.1-1.3-1-1.2
			c-0.8,0-0.8-0.6-0.8-1.2c-0.1-4.3-0.3-8.6-0.4-12.9c0-0.7-0.1-1.1-0.9-1.2c-0.2,0-0.6-0.5-0.6-0.8c-0.1-2.7-0.2-5.3-0.2-8
			c0-0.6,0.1-1,0.9-1.1c0.3,0,0.7-0.5,0.8-0.8C860.7,17.3,860.8,16.4,860.9,15.3z"/>
		<path class="st2" d="M824.1,38.5c1.2,0.2,2-0.1,1.9-1.5c0-0.2,1-0.4,1.7-0.6c0,0.1,0,0,0-0.1c0-1.2,0.4-1.8,1.7-1.6
			c0.4,0.1,0.9-0.1,1.3-0.1c0.7,0,1.1-0.2,1-0.9c0-0.7,0.3-0.9,0.9-0.9c1.9-0.1,3.8-0.2,5.7-0.3c0.6,0,1-0.1,1.1-0.8
			c0.1-0.3,0.6-0.7,1-0.7c1.3-0.2,2.5-0.2,3.8-0.3c0.6,0,0.9-0.2,1-0.9c0-0.3,0.4-0.7,0.7-0.7c2-0.1,4-0.1,6,0
			c0.3,0,0.8,0.5,0.8,0.8c0.2,1,0.3,2.1,0.3,3.2c0,0.9-0.1,1.7,1.2,1.7c0.1,0,0.4,0.6,0.4,1c0.2,3.1,0.2,6.2,0.4,9.3
			c0,0.5-0.1,1.1,0.7,1.1c0.8,0,0.8,0.5,0.9,1.1c0.1,3.8,0.2,7.5,0.3,11.3c0,0.7,0.1,1.2,1,1.3c0.2,0,0.5,0.6,0.5,1
			c0.2,2.5,0.3,4.9,0.4,7.4c0,0.6,0.1,1.1,0.9,1.1c0.2,0,0.7,0.5,0.7,0.8c0,2.6,0,5.2,0,7.9c0,0.7-0.3,0.9-1,0.9
			c-1.8,0.1-3.6,0.2-5.4,0.4c-0.4,0-1,0.3-1,0.5c-0.1,1-0.6,1-1.4,1c-1.9,0.1-3.8,0.2-5.7,0.4c-0.3,0-0.8,0.4-0.8,0.6
			c0,0.9-0.6,1-1.3,1c-1,0-2,0-3,0c-0.9,0-1.7,0.1-1.7-1.2c0-0.1-0.4-0.4-0.7-0.5c-0.4-0.1-0.8-0.1-1.2-0.2c-0.6-0.1-1.4,0-1.7-0.4
			c-0.3-0.5-0.3-1.4-0.3-2.1c0-0.9-0.2-1.2-1.1-1.3c-0.3,0-0.7-0.5-0.8-0.8c-0.2-0.7-0.1-1.5-0.3-2.2c-0.1-0.4-0.5-0.6-0.8-0.9
			c-0.3-0.3-0.7-0.6-0.8-0.9c-0.2-0.6-0.1-1.2-0.1-1.8c0-0.8,0-1.4-1.1-1.4c-0.2,0-0.6-0.5-0.6-0.8c-0.2-1.3-0.2-2.6-0.4-3.9
			c0-0.3-0.5-0.6-0.8-0.9s-0.7-0.6-0.8-0.9c-0.2-0.6-0.2-1.2-0.2-1.8c0-0.8-0.1-1.4-1.1-1.4c-0.2,0-0.5-0.5-0.5-0.8
			c-0.2-1.2-0.3-2.5-0.3-3.7c0-0.7-0.2-1-0.9-1.1c-0.3,0-0.7-0.5-0.8-0.9c-0.2-1.2-0.2-2.5-0.2-3.7c0-0.7-0.1-1.1-1-1.2
			c-0.2,0-0.7-0.4-0.7-0.6c-0.1-1.5-0.1-3.1,0-4.6c0-0.2,0.4-0.6,0.7-0.6c0.9,0,0.9-0.5,1-1.2C823.9,40.4,824,39.5,824.1,38.5z"/>
		<path class="st2" d="M946.2,40.4c0.6,0.1,1,0.1,1.7,0.2c0.1,0.9,0.2,1.8,0.2,2.7c0,0.7,0.1,1.1,0.9,1.1c0.7,0,1,0.4,0.8,1
			c-0.1,0.4-0.5,0.8-0.8,0.9c-0.7,0.1-0.9,0.4-0.9,1.1c0,0.5-0.1,1-0.1,1.5c0,0.8-0.1,1.4-1.1,1.4c-0.2,0-0.6,0.5-0.7,0.8
			c-0.1,1.6,0,3.2,0,4.7c-1.9,0.6-2,0.6-2,2.6c0,0.9,0.1,1.8-1.3,1.7c-0.2,0-0.4,0.4-0.5,0.7c-0.2,1.3-0.2,2.6-0.5,3.9
			c-0.1,0.4-0.4,0.9-0.7,0.9c-0.7,0.1-0.8,0.4-0.8,1c0,0.6-0.1,1.1-0.1,1.7c0,0.8-0.1,1.4-1.1,1.3c-0.2,0-0.6,0.5-0.6,0.7
			c-0.2,1.4-0.2,2.8-0.4,4.2c0,0.3-0.2,0.8-0.3,0.8c-1.8,0.1-1.3,1.6-1.5,2.6c-0.2,0.8-0.3,1.2-1.2,1.2c-0.2,0-0.7,0.5-0.7,0.8
			c0,0.9-0.4,1.1-1.2,1.1c-0.6,0-1.3,0.1-1.9,0.3c-0.2,0.1-0.5,0.4-0.5,0.6c0,0.9-0.6,1-1.3,1c-1.3,0-2.6,0-3.8-0.1
			c-0.3,0-0.8-0.5-0.9-0.8c-0.1-0.7-0.5-0.8-1-0.8c-1.9-0.1-3.8-0.2-5.7-0.3c-0.3,0-0.9-0.4-0.9-0.6c-0.1-0.8-0.5-0.9-1.2-1
			c-1,0-2-0.1-3-0.2c-0.9,0-2,0.2-2-1.3c0-0.1-0.4-0.3-0.7-0.3c-0.8,0-1-0.4-1-1.1c0.1-1.4,0.1-2.7,0.2-4.1c0-0.3,0.4-0.8,0.7-0.8
			c0.9-0.1,0.9-0.6,0.9-1.2c0.1-1.8,0.2-3.7,0.3-5.5c0-0.4,0.4-1,0.7-1c0.8-0.1,0.8-0.5,0.9-1.2c0.1-3.8,0.2-7.5,0.3-11.3
			c0-0.6,0.2-1,0.9-1.2c0.3-0.1,0.7-0.7,0.7-1.1c0.2-3.1,0.3-6.3,0.4-9.5c0-0.7,0.2-1.2,1-1.1c0.7,0,0.8-0.5,0.8-1
			c0-1.9,0.1-3.8,0.1-5.6c0-0.7,0.1-1.2,1-1.3c0.3,0,0.7-0.6,0.8-0.9c0-0.8,0.4-1,1.1-0.9c1.4,0.1,2.7,0.1,4.1,0.2
			c0.3,0,0.7,0.4,0.7,0.7c0.1,0.7,0.4,0.9,1,0.9c1,0,2.1,0.2,3.1,0.2c0.8,0.1,1.8-0.2,1.9,1.2c0,0.1,0.6,0.3,0.9,0.4
			c1.9,0.1,3.8,0.2,5.7,0.3c0.7,0,1.1,0.1,1.1,0.9c0,0.8,0.4,1,1.1,1c0.5,0,1,0.1,1.6,0.1c0.8,0,1.3,0.1,1.3,1.1
			c0,0.2,0.5,0.7,0.8,0.7c2.9,0.3,2.9,0.3,3,3.3C946.2,40,946.2,40.2,946.2,40.4z"/>
		<path class="st2" d="M810.5,65.8c0.7,0,1.3-0.1,1.9-0.1c0-0.3,0.1-0.6,0.1-0.8c0-0.7,0.3-0.9,0.9-0.9c0.9,0,1.8-0.1,2.8-0.1
			c1.2,0,2.3-0.1,1.9-2c1.2,0.1,2.3,0.1,3.4,0.2c0.2,0,0.5,0.3,0.5,0.5c0.2,0.7,0.2,1.5,0.4,2.2c0.1,0.4,0.5,0.8,0.8,0.9
			c0.7,0.1,0.8,0.5,0.8,1.1c0,1.3,0.2,2.5,0.2,3.8c0,0.6,0.2,1,0.9,1c0.7-0.1,0.9,0.3,0.9,0.9c0,0.6,0.2,1.2,0.2,1.8
			c0,0.8,0,1.4,1.1,1.4c0.2,0,0.5,0.5,0.5,0.7c0,0.3-0.3,0.8-0.5,0.9c-0.8,0.1-1,0.5-1.1,1.3c0,0.3-0.6,0.6-0.9,0.9
			c-0.3,0.3-0.9,0.5-1,0.7c-0.1,0.8-0.5,1-1.2,1c-0.5,0-1.1,0.1-1.7,0.1c-0.8,0-1.4,0-1.4,1.1c0,0.2-0.5,0.5-0.8,0.6
			c-1.3,0.2-2.6,0.2-3.9,0.4c-0.3,0-0.8,0.2-0.8,0.3c0,1.9-1.7,1.2-2.6,1.5c-0.8,0.2-1.5,0.1-1.4,1.2c0,0.1-0.2,0.5-0.4,0.5
			c-1,0.1-2,0.1-3,0.1c-0.2,0-0.6-0.4-0.6-0.6c-0.1-0.7-0.3-1.1-1.1-1.1c-0.3,0-0.7-0.6-0.7-0.9c0-4,0-8,0.1-12
			c0-0.3,0.4-0.8,0.7-0.8c0.7-0.1,1-0.3,1-1s0.2-1.1,1-1c0.8,0.1,1.2-0.2,1.2-1.1c0-0.3,0.3-0.8,0.5-0.8
			C810.4,67.8,810.5,66.8,810.5,65.8z"/>
		<path class="st2" d="M944.2,73.5c0.7-0.1,1.2-0.1,1.9-0.2c0-1.8,0-3.6,0-5.5c0.4-0.1,0.7-0.2,1-0.2c0.7,0,0.9-0.3,0.9-0.9
			c0-0.3,0.1-0.6,0.1-1c0-1.2,0-2.3,1.8-1.9c0.1-0.7,0.1-1.2,0.2-1.8c1.1,0,2.2-0.1,3.3,0.1c0.3,0.1,0.5,1,0.8,1.6
			c0.8,0,1.7,0.2,2.6,0.1c0.7,0,1.1,0.2,1,0.9c-0.1,0.8,0.3,1,1,0.9c0.5,0,1,0.1,1.4,0.1c0.8,0,1.4,0.1,1.4,1.1
			c0,0.2,0.6,0.7,0.9,0.7c0.7,0,1,0.3,1,1c-0.1,0.8,0.3,1,1.1,1c0.3,0,0.7,0.5,0.8,0.7c0.2,1.1,0.3,2.3,0.3,3.4
			c0,0.8-0.1,1.7,1.2,1.8c0.1,0,0.3,0.5,0.4,0.8c0.1,0.6,0.1,1.3,0,1.9c-0.1,0.4-0.5,0.7-0.8,1.1c-0.2,0.3-0.6,0.7-0.7,1
			c-0.2,1.8-0.2,3.7-0.4,5.5c0,0.3-0.4,0.8-0.7,0.8c-1.3,0.1-2.7,0-4.1-0.1c-0.2,0-0.6-0.4-0.6-0.5c0-1.1-0.6-1.2-1.5-1.2
			c-0.3,0-0.7-0.4-0.8-0.7c-0.1-0.8-0.5-0.9-1.2-1c-1,0-2.1-0.2-3.1-0.2c-0.9,0-1.7,0.1-1.6-1.2c0-0.1-0.5-0.4-0.8-0.5
			c-1.3-0.2-2.6-0.2-3.9-0.4c-0.3,0-0.7-0.1-0.7-0.2c0-1.2-0.7-1.6-1.7-1.5c-0.1,0-0.3-0.3-0.3-0.5C944.2,77,944.2,75.2,944.2,73.5z
			"/>
	</g>
</g>
<g id="Ebene_2">
</g>
<g id="Ebene_3">
	<g>
		<path class="st3" d="M882.4,86.4c3.8-0.1,7.5-0.2,11.3-0.3c2-0.2,5.1,0.4,6.8-0.9c0.3-0.2,5.1-4.6,4.9-4.7c-2.9,1.9,11,4,18.2,6.1
			c5.1,1.5,8.8,0.7,10.7-4.3c5.6,2.7,12.1,3.6,17.8,6.3c0,0,7.6,4.9,11.5-1.8c2-3.4,1.8-9.2,1-12.9c-0.9-4.1-3.1-7.6-6.2-10.3
			c-2.1-1.8-4.5-3.2-7-4.4c-2.4-1.1-6.2-1.2-7.2-4c-1.3-3.6,3.1-8.4,2.7-12.6c-0.8-7.8-9.2-12.1-15.7-14.5c-0.6-0.2-1.1-0.4-1.7-0.6
			c-4.7-1.5-9.7-1.9-14.4-3.8c-0.4-0.2-0.8-0.4-1.1-0.7c-2.5-2.7-2.6-7.6-5-10.7c-3.8-5.1-9.6-7.7-15.9-7.8l-21.5,0.2
			c-6.2,0.1-12.1,2.7-15.9,7.8c-2.3,3.1-2.5,8-5,10.7c-0.3,0.3-0.7,0.5-1.1,0.7c-4.6,1.9-9.7,2.2-14.4,3.8c-0.6,0.2-1.2,0.4-1.7,0.6
			c-6.5,2.4-14.8,6.7-15.7,14.5c-0.5,4.2,4,9.1,2.7,12.6c-1,2.8-4.8,2.9-7.2,4c-2.5,1.2-4.9,2.5-7,4.4c-3.1,2.7-5.3,6.3-6.2,10.3
			c-0.8,3.7-1,9.4,1,12.9c3.9,6.7,11.5,1.8,11.5,1.8c5.7-2.7,11.3-5.3,17-8c1.9,5,6.4,7.5,11.5,6c5.5-1.6,10.6-2.8,16-4.1
			c3-0.7,6.2-0.1,8.7,1.8c0,0,0,0,0,0c1.5,1.1,2.7,1.7,4.6,1.7L882.4,86.4z"/>
		<line class="st3" x1="819.9" y1="50.2" x2="830.3" y2="82.8"/>
		<line class="st3" x1="854.2" y1="14.8" x2="862.8" y2="81.5"/>
		<line class="st3" x1="916.1" y1="23.7" x2="905.4" y2="80.5"/>
		<line class="st3" x1="944.8" y1="50" x2="934.9" y2="80.6"/>
	</g>
</g>
<g id="Ebene_4">
	<line class="st4" x1="5.6" y1="52.8" x2="747.5" y2="52.8"/>
	<line class="st4" x1="1015.1" y1="52.8" x2="1757" y2="52.8"/>
</g>
</svg>
