<svg xmlns="http://www.w3.org/2000/svg" viewBox="0 0 1728 97.19"><defs><style>.cls-1{fill:#fff;}</style></defs><g id="Ebene_2" data-name="Ebene 2"><g id="Layer_1" data-name="Layer 1"><path class="cls-1" d="M1728,58.07V97.19H0V58.07c1-.1,2.2-.49,2.05,1.3,0,.17.45.51.71.53,1.39.11,2.79.2,4.18.2H738.68c1.4,0,2.79-.14,4.19-.16.62,0,.88-.25.84-.85s.28-1.06,1-1.14a1.19,1.19,0,0,0,.81-.82c.07-2.47,0-4.93.05-7.4,0-.65-.21-1-.9-.94s-1-.44-1-1.14a8.52,8.52,0,0,0-.14-1.09H6.74c-1.32,0-2.64,0-3.95.12a1,1,0,0,0-.75.63c-.3,1.6-.27,1.61-2,1.41V0H1728V48.72c-1.77.19-1.74.18-2-1.41a1.15,1.15,0,0,0-.86-.63c-1.59-.09-3.19-.12-4.79-.12h-705c-1.08,0-2.16,0-3.24,0-.83,0-1.65.09-2.54.15,0,1.1.13,2.33-1.52,2.15-.11,0-.39.48-.39.74,0,2.51,0,5,0,7.52,0,.29.44.8.7.81.9,0,1.16.44,1.21,1.27,0,.25.5.66.8.69a37.59,37.59,0,0,0,3.82.2h707.13c1.31,0,2.63-.09,3.94-.2.26,0,.73-.37.71-.53C1725.8,57.58,1727,58,1728,58.07ZM966.81,89.41c0-1.23,0-2.18,0-3.14,0-.68.18-1,.91-1.11a1.21,1.21,0,0,0,.79-.87c.06-3.88.06-7.75,0-11.63a1.17,1.17,0,0,0-.79-.85c-.73-.08-.93-.38-.93-1.07,0-.9-.14-1.8-.22-2.82-1.46.31-2-.28-1.87-1.64a9,9,0,0,0-.31-2c-.85-.09-1.6-.22-2.35-.23s-1.09-.18-1-.94-.29-1-1-1-1-.1-1-.82-.36-1.09-1.16-1.09a8.59,8.59,0,0,1-2-.26c-.24,0-.59-.38-.59-.57,0-1.06-.62-1.11-1.42-1.11a7,7,0,0,1-1.89-.22c-.31-.09-.73-.48-.75-.75,0-.74-.36-1-1.05-1s-1.07-.23-1-1-.17-1.08-.92-1-.9-.27-.9-.94.28-.88.86-.84c.81.05,1.06-.35,1-1.09s.09-1.13.87-1.1,1-.37.94-1.05q0-3.72,0-7.44c0-.72-.25-1-1-1s-.86-.27-.83-.87a9.35,9.35,0,0,0-.1-1.24c-1.81.57-1.8-.57-1.79-1.75,0-.63-.08-1.25-.13-1.9l-1.76-.16c0-.65-.09-1.24-.14-1.89a7.22,7.22,0,0,0-1-.13c-.56,0-1-.15-.89-.81.09-.86-.43-.92-1.1-1-.32,0-.64-.48-.85-.82a2.54,2.54,0,0,1-.15-.9c-1-.1-2-.13-2.93-.31-.36-.07-.89-.45-.93-.74-.1-.71-.39-.92-1.08-.95-2.43-.09-4.87-.21-7.3-.39-.35,0-.92-.4-1-.69-.14-.73-.5-.89-1.15-.9s-1.27-.16-1.9-.17-1.13-.13-1.2-1c0-.24-.56-.61-.88-.64-1.91-.17-3.82-.28-5.74-.36-.63,0-.91-.21-1-.88a1.22,1.22,0,0,0-.86-.77c-.84,0-1.17-.35-1.07-1.17s-.15-1.09-1-1.14c-.28,0-.72-.55-.76-.89a32.52,32.52,0,0,1-.21-3.7c0-.69-.19-1.08-.95-1s-1.13-.23-1.05-1-.18-1.08-.94-1c-.6.06-.92-.19-.87-.82.07-.8-.23-1.21-1.09-1.11-.61.08-.88-.21-.88-.82a8,8,0,0,0-.13-1,4.19,4.19,0,0,1-1.1-.09c-.3-.12-.77-.43-.76-.64,0-1-.44-1.31-1.38-1.26a5.9,5.9,0,0,1-1.77-.23c-.27-.07-.65-.42-.65-.64,0-1-.54-1.1-1.32-1.08-.6,0-1.19-.11-1.79-.12q-14.82-.06-29.63-.08c-2.31,0-4.63.16-6.93.32a1.21,1.21,0,0,0-.89.74c0,.81-.38,1-1.11,1-.34,0-1,.38-.95.55.09,1.23-.61,1.27-1.56,1.36s-2.52-.33-2.35,1.61c0,.11-.39.32-.63.38a8.81,8.81,0,0,1-1.19.11c.25,1.44-.31,2.17-1.81,1.87-.13,1.08-.21,2-.39,3-.06.29-.42.75-.63.74-.93,0-1.17.39-1.14,1.23a11.51,11.51,0,0,1-.19,2c0,.2-.22.56-.32.55-1.32-.08-1.17.84-1.4,1.7-.1.39-1.13.45-1.6.84s0,1.48-1.17,1.46c-1.35,0-2.71.15-4.06.2-.57,0-1,.07-1.08.8a1.27,1.27,0,0,1-.89.77c-1.3.19-2.62.22-3.92.41a1.16,1.16,0,0,0-.81.72c-.1.7-.44.82-1.05.83-2,.05-3.91.16-5.87.21-.66,0-1,.18-1.12.92a1.27,1.27,0,0,1-.79.76,5.07,5.07,0,0,1-1.65.23c-.78,0-1.46,0-1.44,1.1a.8.8,0,0,1-.5.55c-.68.19-1.41.23-2.07.47a1.34,1.34,0,0,0-.83.83c-.11.73-.46.94-1.12.94a8.45,8.45,0,0,0-1,.13c-.06.7-.11,1.27-.15,1.82l-1.76.2c-.08,1.25-.16,2.4-.25,3.69-1.76-.37-1.74.83-1.8,2,0,.84-.12,1.68-.1,2.51s-.11,1.22-1,1.28a1.07,1.07,0,0,0-.66.85c0,.35.39,1,.65,1,.89.08,1,.54,1,1.29,0,.6.1,1.2.07,1.79s.21,1.08,1,1.16c.3,0,.72.52.8.86a5.28,5.28,0,0,1,.07,2,1.27,1.27,0,0,1-.78.86c-.58.12-1,.22-1,.92s-.42.95-1.11,1c-.31,0-.82.44-.82.68,0,.92-.48,1-1.22,1a7.08,7.08,0,0,0-1.89.22c-.31.09-.75.47-.76.74,0,.74-.35,1-1,1s-1.27.19-1.9.18-1,.26-1,1-.33,1-1,.93a5,5,0,0,0-1,.12c0,1,0,2.06-1.51,1.83-.13,0-.35.65-.57,1s-.47.81-.72.81c-.9,0-1.05.46-1,1.21,0,.59-.17,1.19-.16,1.78s-.23.89-.89,1a1.21,1.21,0,0,0-.8.84,35,35,0,0,0-.28,3.7c0,.66-.08,1.15-.91,1.26-.24,0-.58.53-.59.83-.06,1.4,0,2.8,0,4.2,0,.27.22.77.36.78,1.37.07,1.12,1.08,1.18,1.91.08,1,.11,2.08.22,3.11,0,.31.29.84.45.84,1.25,0,1.2.85,1.23,1.72s.18,1.91.2,2.86c0,.79,0,1.45,1.12,1.37.19,0,.59.38.58.57-.07,1.22.7,1.23,1.56,1.18a15.69,15.69,0,0,1,1.68,0c.61,0,.93-.2.88-.81-.07-.89.41-1,1.18-1,1.51,0,3,0,4.46,0,.44-1.74.44-1.74,2.09-1.94a6.48,6.48,0,0,1,1.07-.07c.6,0,.9-.18.89-.82a9.08,9.08,0,0,1,.17-1.12c1.6,0,3.16,0,4.71,0,.69,0,1.08-.17,1-.92s.32-1,1-1c1,0,2.06-.25,3.09-.29.84,0,1.53-.08,1.5-1.18a.65.65,0,0,1,.45-.46c1.62,0,3.23.06,4.85.15.14,0,.39.34.38.51,0,1,.59,1.17,1.4,1.11.66,0,1,.24.91.91-.09.86.32,1.09,1.13,1.09,3.72,0,7.43,0,11.15,0,.65,0,1.12-.11,1.09-.89s.38-.92,1.06-.94c1.8-.06,3.59-.22,5.38-.28.76,0,1.46,0,1.47-1,0-.19.4-.51.64-.53,1.39-.13,2.79-.23,4.18-.26.32,0,.94.32.93.45-.1,1.28.67,1.38,1.64,1.42a13.74,13.74,0,0,1,2.07.4c.06.59.12,1.13.19,1.71l1,.06c9.28,0,18.55.1,27.83.1,2.88,0,5.75-.15,8.63-.19.68,0,1.09-.18,1-.94s.36-1.09,1.14-1.17a1.21,1.21,0,0,0,.82-.82c.07-.82.47-1,1.18-1,1.28.06,2.55.11,3.83.13a.93.93,0,0,1,1.07.85,1.28,1.28,0,0,0,.92.75c1.87.17,3.74.27,5.62.32.77,0,1.18.19,1.2,1.07a1.08,1.08,0,0,0,.77.75c3.92.06,7.83.07,11.75,0a1.07,1.07,0,0,0,.78-.72c0-1,.46-1.23,1.34-1.2a4.37,4.37,0,0,0,1.65-.23c.34-.13.79-.52.81-.83.07-.88.54-1.08,1.28-1,1,.07,2,.22,3,.21,1.16,0,2.08.14,1.87,1.65,1,.1,1.92.23,2.83.26.68,0,1.09.2,1,1s.41,1,1.11,1c1.5,0,3,.13,4.65.2-.33,1.51.42,1.85,1.64,1.74a3.39,3.39,0,0,1,1.42.13c.35.13.86.49.88.77,0,.91.53,1,1.26,1,1.46,0,2.92,0,4.38,0,.15.87.36,1.83.66,1.86,1.64.15,3.31.07,5,.07.14-1.41.35-2.63.36-3.86S965.07,89,966.81,89.41Z"/><path d="M0,48.71c1.77.19,1.74.19,2-1.41a1,1,0,0,1,.75-.63c1.31-.09,2.63-.12,4-.12H743.56a7.18,7.18,0,0,1,.14,1.09c0,.71.2,1.19,1,1.14s.9.29.9.94c0,2.47,0,4.94-.05,7.4a1.19,1.19,0,0,1-.81.82c-.76.08-1.09.4-1,1.14s-.22.84-.84.85c-1.4,0-2.79.16-4.19.16H6.94c-1.39,0-2.79-.09-4.18-.2-.26,0-.72-.37-.71-.53.15-1.8-1-1.4-2-1.3Z"/><path d="M1728,58.07c-1-.09-2.2-.49-2,1.3,0,.16-.45.51-.71.53-1.31.11-2.63.2-3.94.2H1014.17a37.44,37.44,0,0,1-3.82-.2c-.3,0-.79-.43-.8-.69,0-.83-.31-1.24-1.21-1.27-.25,0-.69-.52-.7-.81,0-2.51,0-5,0-7.52,0-.26.28-.75.39-.74,1.66.17,1.48-1,1.52-2.15.89,0,1.72-.13,2.54-.15,1.08,0,2.16,0,3.24,0h705c1.6,0,3.2,0,4.79.12a1.13,1.13,0,0,1,.86.63c.31,1.59.28,1.6,2,1.41Q1728,53.39,1728,58.07Z"/><path d="M966.81,89.41c-1.73-.39-2,.45-2,1.68s-.22,2.45-.36,3.86c-1.66,0-3.33.08-5-.07-.3,0-.51-1-.66-1.86-1.46,0-2.92,0-4.38,0-.73,0-1.22-.08-1.26-1,0-.28-.52-.64-.88-.77a3.38,3.38,0,0,0-1.42-.13c-1.22.11-2-.23-1.64-1.74-1.64-.08-3.14-.18-4.65-.2-.7,0-1.2-.1-1.11-1s-.33-.94-1-1c-.91,0-1.81-.16-2.83-.26.2-1.51-.71-1.66-1.87-1.65-1,0-2-.14-3-.21-.74,0-1.2.16-1.28,1,0,.31-.47.7-.81.83a4.37,4.37,0,0,1-1.65.23c-.88,0-1.34.21-1.34,1.2,0,.25-.5.71-.78.72q-5.88.06-11.75,0a1.1,1.1,0,0,1-.77-.75c0-.87-.43-1-1.2-1.07-1.88,0-3.75-.15-5.62-.32a1.28,1.28,0,0,1-.92-.75.93.93,0,0,0-1.07-.85c-1.28,0-2.55-.08-3.83-.13-.7,0-1.11.17-1.18,1a1.21,1.21,0,0,1-.82.82c-.79.08-1.21.35-1.14,1.17s-.35.93-1,.94c-2.88,0-5.75.2-8.63.19-9.28,0-18.55-.06-27.83-.1-.31,0-.63,0-1-.06-.06-.58-.12-1.12-.19-1.71a14,14,0,0,0-2.07-.4c-1,0-1.74-.14-1.64-1.42,0-.13-.61-.45-.93-.45-1.4,0-2.79.13-4.18.26-.24,0-.63.34-.64.53,0,1.08-.71,1-1.47,1-1.8.06-3.59.22-5.38.28-.68,0-1.08.2-1.06.94s-.43.9-1.09.89c-3.72,0-7.43,0-11.15,0-.81,0-1.22-.23-1.13-1.09.07-.67-.26-1-.91-.91-.81.06-1.44-.07-1.4-1.11,0-.17-.24-.5-.38-.51-1.61-.08-3.23-.13-4.85-.15a.67.67,0,0,0-.45.46c0,1.1-.66,1.15-1.5,1.18-1,0-2.06.24-3.09.29-.69,0-1.07.24-1,1s-.34.94-1,.92c-1.55,0-3.1,0-4.71,0a7.48,7.48,0,0,0-.17,1.12c0,.63-.29.85-.89.82a6.34,6.34,0,0,0-1.07.07c-1.65.2-1.65.21-2.09,1.94-1.44,0-2.95,0-4.46,0-.77,0-1.25.14-1.18,1,0,.62-.27.85-.88.81a15.69,15.69,0,0,0-1.68,0c-.86.05-1.63,0-1.56-1.18,0-.19-.39-.58-.58-.57-1.09.08-1.1-.58-1.12-1.37,0-1-.17-1.91-.2-2.86s0-1.7-1.23-1.72c-.16,0-.41-.53-.45-.84-.12-1-.15-2.07-.22-3.11-.06-.83.2-1.85-1.18-1.91-.14,0-.35-.5-.36-.78,0-1.4-.06-2.8,0-4.2,0-.3.35-.8.59-.83.83-.11.89-.6.91-1.26a35,35,0,0,1,.28-3.7,1.25,1.25,0,0,1,.8-.84c.66-.08.9-.31.89-1s.17-1.19.16-1.78c0-.75.14-1.21,1-1.21.24,0,.51-.51.72-.81s.43-1,.57-1c1.48.22,1.49-.78,1.51-1.83a5,5,0,0,1,1-.12c.7,0,1.08-.19,1-.93s.29-1,1-1,1.27-.18,1.9-.18,1-.22,1-1c0-.27.45-.65.76-.74a6.66,6.66,0,0,1,1.89-.22c.74,0,1.22-.1,1.22-1,0-.24.51-.64.82-.68.69-.07,1.19-.19,1.11-1s.38-.8,1-.92a1.27,1.27,0,0,0,.78-.86,5.49,5.49,0,0,0-.07-2c-.08-.34-.5-.83-.8-.86-.79-.08-1-.42-1-1.16s-.09-1.2-.07-1.79c0-.74-.12-1.2-1-1.29-.26,0-.63-.62-.65-1a1.1,1.1,0,0,1,.66-.85c.9-.06,1-.55,1-1.28s.06-1.68.1-2.51c.05-1.14,0-2.34,1.8-2,.09-1.3.16-2.44.25-3.69l1.76-.2c0-.55.09-1.13.15-1.82a6.8,6.8,0,0,1,1-.13c.66,0,1-.21,1.12-.94a1.39,1.39,0,0,1,.83-.83c.66-.24,1.39-.28,2.07-.47a.8.8,0,0,0,.5-.55c0-1.06.66-1.09,1.44-1.1a5.72,5.72,0,0,0,1.65-.23c.32-.11.75-.47.79-.76.09-.74.46-.91,1.12-.92,2-.05,3.91-.16,5.87-.21.6,0,1-.14,1-.83a1.16,1.16,0,0,1,.81-.72c1.3-.19,2.62-.21,3.92-.41a1.29,1.29,0,0,0,.89-.77c.11-.73.51-.77,1.08-.8,1.36-.05,2.71-.23,4.06-.2,1.19,0,.71-1.07,1.17-1.46s1.49-.45,1.6-.84c.23-.86.08-1.78,1.4-1.7.1,0,.29-.35.32-.55a11.51,11.51,0,0,0,.19-2c0-.84.21-1.27,1.14-1.23.21,0,.57-.45.63-.74.18-.93.26-1.88.39-3,1.5.3,2.06-.44,1.81-1.87a8.65,8.65,0,0,0,1.19-.11c.24-.06.64-.27.63-.38-.16-1.93,1.38-1.51,2.35-1.61s1.65-.13,1.56-1.36c0-.17.61-.54.95-.55.73,0,1.08-.23,1.11-1,0-.27.56-.72.89-.74,2.31-.16,4.62-.32,6.93-.32,9.88,0,19.75,0,29.63.08.6,0,1.2.13,1.79.12.78,0,1.32.11,1.32,1.08,0,.22.38.57.65.64a5.6,5.6,0,0,0,1.77.23c.94,0,1.41.24,1.38,1.26,0,.21.46.52.76.64a3.77,3.77,0,0,0,1.1.09,8,8,0,0,1,.13,1c0,.61.27.9.88.82.86-.11,1.16.3,1.09,1.11-.05.62.27.88.87.82.76-.08,1,.32.94,1s.29,1.11,1,1,.94.3,1,1a32.78,32.78,0,0,0,.21,3.7c0,.34.48.87.76.89.81.06,1.06.42,1,1.14s.22,1.14,1.07,1.17a1.18,1.18,0,0,1,.86.77c.09.68.36.85,1,.88,1.91.08,3.83.19,5.74.36.32,0,.86.4.88.64.07.83.51,1,1.2,1s1.27.16,1.9.17,1,.17,1.15.9a1.31,1.31,0,0,0,1,.69c2.43.18,4.86.3,7.3.39.69,0,1,.24,1.08.95,0,.3.57.67.93.74.93.18,1.89.21,2.93.31a2.36,2.36,0,0,0,.15.9c.21.33.53.77.85.82.67.09,1.19.15,1.1,1-.07.66.33.81.89.81a7.22,7.22,0,0,1,1,.13c.05.65.09,1.23.14,1.89l1.76.16c.05.65.13,1.27.13,1.9,0,1.18,0,2.33,1.79,1.75a9.35,9.35,0,0,1,.1,1.24c0,.6.21.91.83.87s1,.27,1,1q0,3.72,0,7.44c0,.68-.19,1.08-.94,1s-.94.46-.87,1.1-.18,1.15-1,1.09c-.58,0-.86.19-.86.84s.23,1,.9.94,1,.36.92,1,.29,1,1,1,1,.21,1,.95c0,.27.44.66.75.75a7,7,0,0,0,1.89.22c.8,0,1.44.05,1.42,1.11,0,.19.35.52.59.57a8.59,8.59,0,0,0,2,.26c.8,0,1.22.23,1.16,1.09s.4.88,1,.82,1.06.24,1,1,.35.93,1,.94,1.5.14,2.35.23a8.48,8.48,0,0,1,.31,2.05c-.1,1.36.41,1.95,1.87,1.64.09,1,.22,1.91.22,2.82,0,.69.2,1,.93,1.07a1.21,1.21,0,0,1,.79.85q.07,5.82,0,11.63a1.21,1.21,0,0,1-.79.87c-.73.11-.94.43-.91,1.11C966.83,87.22,966.81,88.18,966.81,89.41ZM856.34,15.63a27.26,27.26,0,0,1-.39,2.83c-.08.34-.51.81-.81.83-.78.06-.93.45-.91,1.09.07,2.67.11,5.35.22,8a1.06,1.06,0,0,0,.62.8c.82.09.92.54.94,1.23.12,4.31.27,8.63.41,12.94,0,.56-.08,1.21.77,1.2s1,.54,1,1.25c0,2.52.11,5,.16,7.55,0,.57,0,1.09.77,1.08s.95.47,1,1.17c0,2.44.1,4.88.23,7.31,0,.37.4,1,.61,1,1.07,0,1.09.61,1.1,1.41,0,4.32.09,8.64.2,13,0,.36.39,1,.6,1,1.08,0,1.24.57,1.19,1.47a5.78,5.78,0,0,0,.15,1.66,1.05,1.05,0,0,0,.63.67,12.17,12.17,0,0,0,2.48.29q12.9,0,25.79,0c1.22,0,2.45-.15,3.56-.22.52-.67-.27-1.95,1.13-1.88.88,0,1-.38,1.06-1.16.07-3.68.2-7.35.28-11,0-.73,0-1.34,1-1.4.21,0,.51-.63.54-1,.18-2.47.27-5,.45-7.41,0-.37.37-1,.64-1,.84-.14.86-.64.88-1.28.11-3.15.24-6.31.41-9.46,0-.34.35-.93.58-1,.93-.11.9-.7.92-1.37.11-3.67.26-7.35.36-11,0-.69.14-1.12.94-1.23.25,0,.6-.58.63-.92.16-1.91.25-3.83.32-5.74,0-.66.07-1.16.91-1.26a1,1,0,0,0,.6-.71,11.48,11.48,0,0,0,0-2.27c0-.25-.3-.67-.47-.68-1.06,0-1-.73-1.06-1.49a7.55,7.55,0,0,0-.24-1.77,1.18,1.18,0,0,0-.64-.64,4.45,4.45,0,0,0-1.15-.14c.16-1.14.13-2.12-1.37-2-.11,0-.37-.49-.38-.76,0-.77-.33-1-1.09-1.08a1.21,1.21,0,0,1-.88-.75c0-.87-.44-1.1-1.22-1-.54.05-1.12,0-1.07-.74.06-.95-.44-1.15-1.26-1.1-.55,0-1.12-.07-1.67-.07l-27.23,0h-4.44c-.12.72-.21,1.25-.3,1.81l-3.54.27c-.09.59-.16,1.12-.24,1.68l-1.73.18c-.07.6-.13,1.14-.19,1.72Zm-36.81,23.2c-.09,1-.21,1.84-.22,2.71,0,.68-.09,1.16-.95,1.18a.94.94,0,0,0-.66.62c-.05,1.55-.05,3.1,0,4.65a1,1,0,0,0,.66.64c.83,0,.93.51,1,1.2a35,35,0,0,0,.24,3.7,1.24,1.24,0,0,0,.78.88c.74.08.91.41.94,1.08.06,1.23.18,2.47.34,3.69,0,.28.34.74.53.75,1,0,1.13.62,1.13,1.43a5.86,5.86,0,0,0,.24,1.77c.12.36.51.62.77.93s.7.59.75.93c.2,1.29.25,2.61.43,3.91,0,.3.42.8.61.79,1.08-.08,1.15.54,1.13,1.35a5.85,5.85,0,0,0,.13,1.78c.09.35.5.62.76.92s.68.58.76.93c.18.73.11,1.52.29,2.24.08.32.5.78.78.78.91,0,1.16.4,1.14,1.26A4,4,0,0,0,831.4,81c.21.34,1.08.28,1.65.39a8.92,8.92,0,0,1,1.17.19c.26.08.69.32.68.46-.09,1.32.78,1.24,1.65,1.22s2,0,3,0c.71,0,1.25,0,1.27-1,0-.22.48-.6.77-.62,1.91-.16,3.82-.29,5.74-.35.76,0,1.31-.07,1.39-1,0-.22.62-.52,1-.55,1.79-.17,3.58-.29,5.38-.38.65,0,.94-.25.95-.92,0-2.63.05-5.25,0-7.87a1,1,0,0,0-.65-.76c-.77-.08-.86-.51-.89-1.14-.11-2.47-.24-5-.42-7.41,0-.35-.32-.95-.55-1-.89-.11-.95-.61-1-1.33-.1-3.76-.24-7.51-.35-11.27,0-.62-.08-1.12-.87-1.12s-.7-.59-.72-1.11c-.11-3.11-.22-6.23-.36-9.34,0-.34-.26-1-.41-1-1.3,0-1.15-.89-1.19-1.74a24.75,24.75,0,0,0-.32-3.21c-.06-.33-.53-.82-.82-.83-2-.05-4,0-6,.05a1,1,0,0,0-.69.72c-.08.68-.41.85-1,.88-1.27.06-2.55.12-3.82.29a1.3,1.3,0,0,0-.95.71c-.14.69-.5.78-1.08.81-1.91.09-3.82.24-5.74.32-.65,0-1,.26-.94.92s-.32,1-1,.94c-.43,0-.89.12-1.31.06-1.25-.19-1.75.37-1.7,1.57,0,.06-.08.13,0,.07-.68.23-1.74.43-1.74.62C821.48,38.68,820.77,39,819.53,38.83Zm122.13,1.89c0-.26-.06-.42-.07-.57-.11-3-.12-3-3-3.32-.31,0-.8-.47-.81-.72,0-1-.51-1.12-1.31-1.06-.51,0-1-.11-1.55-.08-.73,0-1.17-.16-1.11-1s-.41-.89-1.07-.92c-1.92-.06-3.83-.17-5.74-.3-.32,0-.88-.23-.89-.36C926,31,925,31.28,924.19,31.22c-1-.07-2.06-.21-3.1-.25-.64,0-.92-.23-1-.9a1,1,0,0,0-.7-.7c-1.35-.13-2.71-.16-4.07-.23-.67,0-1,.14-1.06.91a1.2,1.2,0,0,1-.76.88c-.91.05-1,.54-1,1.27,0,1.88-.1,3.76-.13,5.63,0,.58-.07,1.07-.81,1s-1,.39-1,1.11c-.08,3.16-.19,6.31-.36,9.46,0,.39-.38,1-.68,1.1-.73.16-.87.52-.89,1.16-.1,3.76-.24,7.51-.34,11.27,0,.64-.12,1-.87,1.16-.27,0-.61.64-.65,1-.16,1.83-.24,3.67-.31,5.5,0,.65-.06,1.17-.92,1.23-.24,0-.62.48-.65.76-.13,1.35-.14,2.71-.22,4.07,0,.72.17,1.15,1,1.14.23,0,.66.22.66.34,0,1.51,1.08,1.28,2,1.33s2,.15,3,.16c.68,0,1.13.12,1.21.95,0,.24.57.6.89.63,1.91.16,3.83.24,5.74.32.59,0,1,.11,1,.83a1.24,1.24,0,0,0,.86.79c1.27.12,2.55.09,3.83.14.72,0,1.26-.09,1.29-1a.9.9,0,0,1,.55-.62,6.7,6.7,0,0,1,1.87-.3c.83,0,1.27-.2,1.25-1.13,0-.26.42-.76.65-.76.91,0,1-.48,1.19-1.25.23-.94-.32-2.51,1.52-2.59.11,0,.27-.52.29-.81.13-1.39.19-2.78.36-4.17,0-.28.43-.76.63-.74,1.08.09,1.16-.53,1.13-1.34,0-.56.11-1.11.1-1.67s.15-.93.84-1c.3,0,.67-.58.73-.93.21-1.29.29-2.61.47-3.91,0-.25.33-.68.48-.68,1.36.08,1.26-.79,1.28-1.72,0-2,.08-2,2-2.61,0-1.52,0-3.12,0-4.7,0-.3.43-.85.65-.84,1,0,1.16-.56,1.13-1.38,0-.51.12-1,.1-1.55,0-.68.18-1,.92-1.08.3,0,.7-.5.8-.85.18-.59-.11-1-.81-1s-.9-.4-.91-1.06c0-.9-.13-1.8-.2-2.69C942.7,40.83,942.23,40.78,941.66,40.72ZM805.92,66.06c0,1.09-.1,2-1.54,1.82-.12,0-.47.5-.46.77,0,.86-.36,1.16-1.16,1.07s-1,.29-1,1-.23,1-.95,1a1.11,1.11,0,0,0-.7.82q-.11,6-.08,12c0,.31.42.85.69.87.77.07,1,.41,1.08,1.13a.84.84,0,0,0,.61.56,27.3,27.3,0,0,0,3-.13.63.63,0,0,0,.41-.47c-.09-1.12.66-1,1.43-1.23.93-.24,2.54.46,2.57-1.48,0-.1.52-.26.81-.29,1.31-.13,2.62-.19,3.93-.35.3,0,.82-.39.81-.58-.06-1.08.58-1.13,1.38-1.12.56,0,1.11-.14,1.67-.12.71,0,1.1-.15,1.19-1,0-.28.63-.47,1-.74s.88-.59.92-.93c.08-.75.23-1.19,1.08-1.26.22,0,.52-.54.54-.85s-.34-.72-.53-.72c-1.06,0-1.11-.64-1.1-1.43,0-.59-.17-1.19-.17-1.78s-.22-1-.9-.92-.85-.33-.87-1c0-1.28-.16-2.55-.2-3.83,0-.58-.08-1-.81-1.06-.31,0-.69-.51-.8-.86-.22-.71-.24-1.48-.41-2.21-.05-.22-.31-.53-.5-.55-1.05-.12-2.11-.16-3.36-.23.46,1.89-.66,1.95-1.87,2-.92,0-1.83.13-2.75.13-.66,0-1,.26-.93.92a4.66,4.66,0,0,1-.13.84Zm133.68,7.7c0,1.78,0,3.52,0,5.26,0,.19.23.53.34.53,1.09,0,1.72.36,1.74,1.53,0,.08.48.18.74.21,1.31.13,2.62.21,3.92.37.29,0,.8.32.79.46-.1,1.32.76,1.22,1.63,1.25,1,0,2.07.18,3.1.2.69,0,1.14.12,1.2,1a1,1,0,0,0,.75.67c.86,0,1.5.16,1.48,1.24,0,.18.39.53.62.54A39.29,39.29,0,0,0,960,87c.26,0,.67-.51.7-.82.17-1.82.22-3.66.39-5.48,0-.37.43-.71.67-1s.67-.69.76-1.09a6.78,6.78,0,0,0,0-1.91c0-.28-.23-.76-.37-.77-1.27-.07-1.11-1-1.15-1.8a32.84,32.84,0,0,0-.34-3.44,1.11,1.11,0,0,0-.76-.74c-.73,0-1.16-.23-1.08-1s-.25-1-1-1c-.34,0-1-.44-1-.68,0-1-.51-1.21-1.36-1.15-.47,0-.95-.12-1.43-.1-.69,0-1.09-.17-1-.92s-.36-.92-1-.92c-.91,0-1.82-.1-2.61-.15-.28-.65-.43-1.59-.75-1.65a18.08,18.08,0,0,0-3.3-.07c0,.6-.1,1.15-.16,1.84-1.76-.43-1.79.72-1.81,1.9,0,.32-.09.64-.07,1,0,.67-.25,1-.91.93a4.79,4.79,0,0,0-1,.18v5.49Z"/><path class="cls-1" d="M856.34,15.63l1.78-.15c.06-.58.12-1.12.19-1.72l1.73-.18c.08-.56.16-1.1.24-1.68l3.54-.27c.09-.56.18-1.09.3-1.81h4.44l27.23,0c.56,0,1.12.1,1.67.07.82,0,1.32.15,1.26,1.1-.05.77.53.79,1.07.74.78-.07,1.17.15,1.22,1,0,.28.55.73.88.75.76,0,1.08.31,1.09,1.08,0,.26.26.76.38.76,1.5-.1,1.54.88,1.37,2a4.45,4.45,0,0,1,1.15.14,1.18,1.18,0,0,1,.64.64,7,7,0,0,1,.24,1.77c0,.76,0,1.45,1.06,1.49.17,0,.46.43.47.68a12.29,12.29,0,0,1,0,2.27,1,1,0,0,1-.6.71c-.84.09-.89.59-.91,1.26-.07,1.92-.16,3.83-.32,5.74,0,.34-.37.88-.63.92-.81.11-.93.54-.94,1.23-.1,3.68-.25,7.35-.36,11,0,.67,0,1.26-.92,1.37-.24,0-.56.61-.58,1-.17,3.15-.3,6.31-.41,9.46,0,.65,0,1.15-.88,1.28-.27,0-.61.65-.64,1-.19,2.47-.28,4.94-.45,7.41,0,.35-.33,1-.54,1-1,.06-1,.68-1,1.4-.08,3.68-.21,7.35-.28,11,0,.78-.18,1.21-1.06,1.16-1.4-.08-.61,1.21-1.13,1.88-1.11.07-2.34.22-3.56.22q-12.9,0-25.79,0a12.17,12.17,0,0,1-2.48-.29,1.05,1.05,0,0,1-.63-.67,5.78,5.78,0,0,1-.15-1.66c0-.89-.11-1.45-1.19-1.47-.21,0-.59-.66-.6-1q-.15-6.48-.2-13c0-.8,0-1.41-1.1-1.41-.22,0-.59-.65-.61-1-.12-2.43-.19-4.87-.23-7.31,0-.7-.13-1.18-1-1.17s-.76-.52-.77-1.08c0-2.52-.13-5-.16-7.55,0-.72-.06-1.27-1-1.25s-.75-.64-.77-1.2c-.14-4.31-.29-8.63-.41-12.94,0-.69-.12-1.14-.94-1.23a1.06,1.06,0,0,1-.62-.8c-.11-2.67-.15-5.34-.22-8,0-.64.13-1,.91-1.09.3,0,.73-.49.81-.83A22.68,22.68,0,0,0,856.34,15.63Z"/><path class="cls-1" d="M819.53,38.83c1.24.2,2-.15,1.94-1.51,0-.19,1-.39,1.74-.62,0,.06,0,0,0-.07,0-1.19.44-1.75,1.7-1.57.42.06.88-.09,1.31-.06.7,0,1.07-.2,1-.94s.28-.89.94-.92c1.91-.08,3.82-.24,5.74-.32.59,0,.95-.12,1.08-.81.06-.3.6-.66,1-.71,1.26-.17,2.54-.24,3.82-.29.61,0,.94-.2,1-.88a1,1,0,0,1,.69-.72c2-.08,4-.11,6-.05.29,0,.76.5.82.83a24.58,24.58,0,0,1,.32,3.21c0,.85-.11,1.73,1.19,1.74.14,0,.39.62.41,1,.15,3.11.25,6.23.36,9.34,0,.52-.06,1.11.72,1.11s.85.5.87,1.12c.11,3.76.25,7.51.35,11.27,0,.72.09,1.22,1,1.33.23,0,.53.63.55,1,.18,2.47.31,4.94.42,7.41,0,.63.11,1.06.89,1.14a1,1,0,0,1,.65.76c0,2.62,0,5.25,0,7.87,0,.67-.3.89-1,.92-1.79.09-3.59.21-5.38.38-.36,0-1,.33-1,.55-.08,1-.64,1-1.39,1-1.91.06-3.83.18-5.74.35-.29,0-.76.4-.77.62,0,.93-.56,1-1.27,1-1,0-2,0-3,0s-1.74.1-1.65-1.22c0-.14-.42-.38-.68-.46a8.92,8.92,0,0,0-1.17-.19c-.57-.11-1.44,0-1.65-.39a4,4,0,0,1-.33-2.08c0-.86-.23-1.24-1.14-1.26-.28,0-.7-.46-.78-.78-.18-.73-.11-1.52-.29-2.24-.09-.35-.5-.63-.76-.93s-.67-.57-.76-.92a6.62,6.62,0,0,1-.13-1.78c0-.81-.05-1.43-1.13-1.35-.19,0-.57-.49-.61-.79-.18-1.3-.23-2.62-.43-3.91,0-.34-.49-.62-.75-.93s-.65-.57-.77-.93a5.82,5.82,0,0,1-.24-1.77c0-.81-.1-1.41-1.13-1.43-.19,0-.49-.47-.53-.75-.16-1.22-.28-2.46-.34-3.69,0-.67-.2-1-.94-1.08a1.23,1.23,0,0,1-.78-.88,32.68,32.68,0,0,1-.24-3.7c0-.69-.11-1.15-.95-1.2a1,1,0,0,1-.66-.64c-.06-1.55-.07-3.1,0-4.65a.9.9,0,0,1,.66-.62c.86,0,.94-.5.95-1.18C819.32,40.67,819.44,39.8,819.53,38.83Z"/><path class="cls-1" d="M941.66,40.72l1.65.18c.07.9.18,1.79.2,2.69,0,.66.13,1.1.91,1.06s1,.39.81,1a1.33,1.33,0,0,1-.8.85c-.74.08-.95.4-.92,1.08,0,.51-.12,1-.1,1.55,0,.82-.08,1.4-1.13,1.38-.22,0-.63.54-.65.84-.07,1.59,0,3.18,0,4.7-1.94.56-2,.56-2,2.61,0,.93.07,1.8-1.28,1.72-.15,0-.45.42-.48.68-.18,1.3-.25,2.62-.47,3.91-.06.36-.43.88-.73.93-.69.12-.84.44-.84,1.05s-.12,1.12-.1,1.67c0,.81-.06,1.43-1.13,1.34-.2,0-.6.46-.63.74-.17,1.38-.23,2.78-.36,4.17,0,.29-.18.8-.29.81-1.84.08-1.29,1.65-1.52,2.59-.19.77-.28,1.24-1.19,1.25-.23,0-.65.5-.65.76,0,.93-.42,1.14-1.25,1.13a6.59,6.59,0,0,0-1.87.3.92.92,0,0,0-.55.62c0,.9-.57,1-1.29,1-1.28,0-2.56,0-3.83-.14a1.22,1.22,0,0,1-.86-.79c-.1-.72-.47-.8-1-.83-1.91-.08-3.83-.17-5.74-.32-.33,0-.87-.38-.89-.63-.07-.83-.52-.94-1.21-1-1,0-2-.11-3-.16s-2,.18-2-1.33c0-.12-.43-.34-.66-.34-.82,0-1-.42-1-1.14.08-1.36.09-2.72.22-4.07,0-.29.4-.75.65-.76.86-.06.9-.58.92-1.23.07-1.84.15-3.67.31-5.5,0-.37.37-1,.65-1,.76-.13.85-.52.87-1.16.1-3.76.24-7.51.34-11.27,0-.64.16-1,.89-1.16.3-.07.66-.7.68-1.1.17-3.15.28-6.31.36-9.46,0-.72.17-1.16,1-1.11s.8-.45.81-1c0-1.88.12-3.76.13-5.63,0-.73.08-1.21,1-1.27a1.22,1.22,0,0,0,.76-.88c0-.78.39-.95,1.06-.91,1.36.08,2.72.1,4.07.23a1,1,0,0,1,.7.7c.07.67.36.87,1,.9,1,0,2.07.18,3.1.25.85.06,1.84-.18,1.89,1.19,0,.14.57.34.89.36,1.91.13,3.83.23,5.74.3.65,0,1.12.15,1.07.92s.38,1,1.11,1c.51,0,1,.11,1.55.08.8,0,1.3.09,1.31,1.06,0,.25.5.68.81.72,2.91.34,2.91.32,3,3.32A3.56,3.56,0,0,0,941.66,40.72Z"/><path class="cls-1" d="M805.92,66.06l1.87-.13a4.66,4.66,0,0,0,.13-.84c0-.67.27-.92.93-.92.92,0,1.83-.12,2.75-.13,1.21,0,2.32-.07,1.87-2,1.24.08,2.3.12,3.36.23.19,0,.45.33.5.55.17.73.19,1.5.41,2.21.11.35.49.82.8.86.73.09.79.48.81,1.06,0,1.28.16,2.55.2,3.83,0,.62.16,1,.87,1s.9.27.9.92.17,1.19.17,1.78c0,.8,0,1.43,1.1,1.43.19,0,.54.48.53.72s-.32.83-.54.85c-.85.08-1,.52-1.08,1.26,0,.34-.58.64-.92.93s-.91.46-1,.74c-.09.81-.48,1-1.19,1-.55,0-1.11.13-1.67.12-.8,0-1.43,0-1.38,1.12,0,.19-.51.54-.81.58-1.3.16-2.62.22-3.93.35-.29,0-.81.18-.81.29,0,1.93-1.65,1.24-2.57,1.48s-1.52.11-1.43,1.23a.63.63,0,0,1-.41.47,27.08,27.08,0,0,1-3,.13.84.84,0,0,1-.61-.56c-.06-.72-.31-1.06-1.08-1.13-.26,0-.68-.57-.69-.87q0-6,.08-12a1.11,1.11,0,0,1,.7-.82c.72-.07,1-.34.95-1s.24-1.07,1-1,1.19-.21,1.16-1.07c0-.26.35-.78.46-.77C805.82,68.11,805.92,67.15,805.92,66.06Z"/><path class="cls-1" d="M939.6,73.76l1.89-.22V68.05a4.91,4.91,0,0,1,1-.18c.66,0,.95-.26.91-.93,0-.31.06-.63.07-1,0-1.18,0-2.33,1.81-1.9.06-.69.11-1.24.16-1.84a19,19,0,0,1,3.3.07c.32.06.48,1,.75,1.65.79,0,1.7.16,2.61.15.68,0,1.09.16,1,.92s.35,1,1,.92c.47,0,1,.12,1.43.1.85,0,1.37.13,1.36,1.15,0,.24.6.67,1,.68.72,0,1,.28,1,1s.35,1,1.08,1a1.13,1.13,0,0,1,.76.74,28.41,28.41,0,0,1,.34,3.44c0,.84-.13,1.73,1.15,1.8.14,0,.35.49.37.77a6.43,6.43,0,0,1,0,1.91c-.08.4-.5.72-.76,1.09s-.63.68-.67,1c-.17,1.82-.22,3.66-.39,5.48,0,.31-.45.81-.7.82-1.35.06-2.71,0-4.06-.06-.23,0-.62-.35-.62-.54,0-1.09-.62-1.2-1.48-1.24a1,1,0,0,1-.75-.67c-.07-.83-.51-.93-1.2-1-1,0-2.07-.18-3.1-.2-.87,0-1.73.07-1.63-1.25,0-.14-.5-.43-.79-.46-1.3-.16-2.61-.24-3.92-.37-.26,0-.74-.13-.74-.21,0-1.17-.65-1.57-1.74-1.53-.11,0-.34-.34-.34-.53C939.59,77.28,939.6,75.54,939.6,73.76Z"/></g></g></svg>